G04 #@! TF.GenerationSoftware,KiCad,Pcbnew,9.0.2*
G04 #@! TF.CreationDate,2025-06-16T21:06:24+01:00*
G04 #@! TF.ProjectId,WS2812B_strip_driver_wled,57533238-3132-4425-9f73-747269705f64,rev?*
G04 #@! TF.SameCoordinates,Original*
G04 #@! TF.FileFunction,OtherDrawing,Comment*
%FSLAX46Y46*%
G04 Gerber Fmt 4.6, Leading zero omitted, Abs format (unit mm)*
G04 Created by KiCad (PCBNEW 9.0.2) date 2025-06-16 21:06:24*
%MOMM*%
%LPD*%
G01*
G04 APERTURE LIST*
%ADD10C,0.200000*%
G04 APERTURE END LIST*
D10*
G04 #@! TO.C,F5*
X22265500Y-75457000D02*
X22265500Y-75457000D01*
X22265500Y-75457000D02*
X22265500Y-75457000D01*
X22265500Y-83257000D02*
X22265500Y-83257000D01*
X22265500Y-83257000D02*
X22265500Y-83257000D01*
X23065500Y-74657000D02*
X23065500Y-74657000D01*
X23065500Y-74657000D02*
X23065500Y-74657000D01*
X23065500Y-84057000D02*
X23065500Y-84057000D01*
X23065500Y-84057000D02*
X23065500Y-84057000D01*
X24065500Y-74657000D02*
X24065500Y-74657000D01*
X24065500Y-84057000D02*
X24065500Y-84057000D01*
X26565500Y-74657000D02*
X26565500Y-74657000D01*
X26565500Y-84057000D02*
X26565500Y-84057000D01*
X28465500Y-74657000D02*
X28465500Y-74657000D01*
X28465500Y-84057000D02*
X28465500Y-84057000D01*
X40365500Y-76536544D02*
X40365500Y-74657000D01*
X40465500Y-74657000D02*
X40465500Y-74657000D01*
X40465500Y-84057000D02*
X40465500Y-84057000D01*
X42365500Y-74657000D02*
X42365500Y-74657000D01*
X42365500Y-84057000D02*
X42365500Y-84057000D01*
X44865500Y-74657000D02*
X44865500Y-74657000D01*
X44865500Y-84057000D02*
X44865500Y-84057000D01*
X45865500Y-74657000D02*
X45865500Y-74657000D01*
X45865500Y-74657000D02*
X45865500Y-74657000D01*
X45865500Y-84057000D02*
X45865500Y-84057000D01*
X45865500Y-84057000D02*
X45865500Y-84057000D01*
X46665500Y-75457000D02*
X46665500Y-75457000D01*
X46665500Y-75457000D02*
X46665500Y-75457000D01*
X46665500Y-83257000D02*
X46665500Y-83257000D01*
X46665500Y-83257000D02*
X46665500Y-83257000D01*
G04 #@! TD*
M02*
