G04 #@! TF.GenerationSoftware,KiCad,Pcbnew,9.0.2*
G04 #@! TF.CreationDate,2025-06-16T21:06:24+01:00*
G04 #@! TF.ProjectId,WS2812B_strip_driver_wled,57533238-3132-4425-9f73-747269705f64,rev?*
G04 #@! TF.SameCoordinates,Original*
G04 #@! TF.FileFunction,Legend,Bot*
G04 #@! TF.FilePolarity,Positive*
%FSLAX46Y46*%
G04 Gerber Fmt 4.6, Leading zero omitted, Abs format (unit mm)*
G04 Created by KiCad (PCBNEW 9.0.2) date 2025-06-16 21:06:24*
%MOMM*%
%LPD*%
G01*
G04 APERTURE LIST*
G04 Aperture macros list*
%AMRoundRect*
0 Rectangle with rounded corners*
0 $1 Rounding radius*
0 $2 $3 $4 $5 $6 $7 $8 $9 X,Y pos of 4 corners*
0 Add a 4 corners polygon primitive as box body*
4,1,4,$2,$3,$4,$5,$6,$7,$8,$9,$2,$3,0*
0 Add four circle primitives for the rounded corners*
1,1,$1+$1,$2,$3*
1,1,$1+$1,$4,$5*
1,1,$1+$1,$6,$7*
1,1,$1+$1,$8,$9*
0 Add four rect primitives between the rounded corners*
20,1,$1+$1,$2,$3,$4,$5,0*
20,1,$1+$1,$4,$5,$6,$7,0*
20,1,$1+$1,$6,$7,$8,$9,0*
20,1,$1+$1,$8,$9,$2,$3,0*%
G04 Aperture macros list end*
%ADD10C,2.500000*%
%ADD11RoundRect,0.250000X-1.000000X-1.000000X1.000000X-1.000000X1.000000X1.000000X-1.000000X1.000000X0*%
%ADD12RoundRect,0.250000X1.050000X-1.050000X1.050000X1.050000X-1.050000X1.050000X-1.050000X-1.050000X0*%
%ADD13C,2.600000*%
%ADD14RoundRect,0.250000X0.550000X-0.550000X0.550000X0.550000X-0.550000X0.550000X-0.550000X-0.550000X0*%
%ADD15C,1.600000*%
%ADD16RoundRect,0.250000X0.350000X-0.350000X0.350000X0.350000X-0.350000X0.350000X-0.350000X-0.350000X0*%
%ADD17C,1.200000*%
%ADD18C,3.200000*%
%ADD19C,0.600000*%
%ADD20C,0.650000*%
%ADD21O,1.000000X2.100000*%
%ADD22O,1.000000X1.600000*%
%ADD23RoundRect,0.250000X-1.050000X1.050000X-1.050000X-1.050000X1.050000X-1.050000X1.050000X1.050000X0*%
%ADD24RoundRect,0.250000X0.350000X0.350000X-0.350000X0.350000X-0.350000X-0.350000X0.350000X-0.350000X0*%
%ADD25RoundRect,0.250000X-0.725000X0.600000X-0.725000X-0.600000X0.725000X-0.600000X0.725000X0.600000X0*%
%ADD26O,1.950000X1.700000*%
G04 APERTURE END LIST*
%LPC*%
D10*
G04 #@! TO.C,K1*
X84225000Y-93449503D03*
X98425000Y-87449503D03*
X98425000Y-99449503D03*
D11*
X86225000Y-87449503D03*
D10*
X86225000Y-99449503D03*
G04 #@! TD*
D12*
G04 #@! TO.C,J1*
X120500000Y-98744503D03*
D13*
X120500000Y-93664503D03*
X120500000Y-88584503D03*
G04 #@! TD*
D14*
G04 #@! TO.C,C13*
X106825000Y-88844503D03*
D15*
X106825000Y-83844503D03*
G04 #@! TD*
D10*
G04 #@! TO.C,K2*
X84225000Y-116571336D03*
X98425000Y-110571336D03*
X98425000Y-122571336D03*
D11*
X86225000Y-110571336D03*
D10*
X86225000Y-122571336D03*
G04 #@! TD*
D14*
G04 #@! TO.C,C12*
X106750000Y-111959669D03*
D15*
X106750000Y-106959669D03*
G04 #@! TD*
D12*
G04 #@! TO.C,J2*
X120500000Y-121866336D03*
D13*
X120500000Y-116786336D03*
X120500000Y-111706336D03*
G04 #@! TD*
D14*
G04 #@! TO.C,C10*
X106690000Y-135582485D03*
D15*
X106690000Y-130582485D03*
G04 #@! TD*
D16*
G04 #@! TO.C,C2*
X28010000Y-87905199D03*
D17*
X28010000Y-85905199D03*
G04 #@! TD*
D18*
G04 #@! TO.C,H1*
X16600000Y-77400000D03*
G04 #@! TD*
D19*
G04 #@! TO.C,U1*
X28115000Y-151280000D03*
X29515000Y-151280000D03*
X27415000Y-150580000D03*
X28815000Y-150580000D03*
X30215000Y-150580000D03*
X28115000Y-149880000D03*
X29515000Y-149880000D03*
X27415000Y-149180000D03*
X28815000Y-149180000D03*
X30215000Y-149180000D03*
X28115000Y-148480000D03*
X29515000Y-148480000D03*
G04 #@! TD*
D14*
G04 #@! TO.C,C11*
X106690000Y-159460000D03*
D15*
X106690000Y-154460000D03*
G04 #@! TD*
D12*
G04 #@! TO.C,J4*
X120500000Y-169155000D03*
D13*
X120500000Y-164075000D03*
X120500000Y-158995000D03*
G04 #@! TD*
D20*
G04 #@! TO.C,J8*
X56740000Y-80825000D03*
X50960000Y-80825000D03*
D21*
X58170000Y-81355000D03*
D22*
X58170000Y-77175000D03*
D21*
X49530000Y-81355000D03*
D22*
X49530000Y-77175000D03*
G04 #@! TD*
D23*
G04 #@! TO.C,J5*
X18800000Y-92730000D03*
D13*
X18800000Y-97810000D03*
X18800000Y-102890000D03*
G04 #@! TD*
D18*
G04 #@! TO.C,H3*
X16600000Y-176600000D03*
G04 #@! TD*
D10*
G04 #@! TO.C,K4*
X84225000Y-163737500D03*
X98425000Y-157737500D03*
X98425000Y-169737500D03*
D11*
X86225000Y-157737500D03*
D10*
X86225000Y-169737500D03*
G04 #@! TD*
D18*
G04 #@! TO.C,H4*
X122500000Y-176600000D03*
G04 #@! TD*
D10*
G04 #@! TO.C,K3*
X84225000Y-139956917D03*
X98425000Y-133956917D03*
X98425000Y-145956917D03*
D11*
X86225000Y-133956917D03*
D10*
X86225000Y-145956917D03*
G04 #@! TD*
D18*
G04 #@! TO.C,H2*
X122500000Y-77400000D03*
G04 #@! TD*
D12*
G04 #@! TO.C,J3*
X120500000Y-145374417D03*
D13*
X120500000Y-140294417D03*
X120500000Y-135214417D03*
G04 #@! TD*
D24*
G04 #@! TO.C,C1*
X40920000Y-86960000D03*
D17*
X38920000Y-86960000D03*
G04 #@! TD*
D25*
G04 #@! TO.C,J6*
X21250000Y-111100000D03*
D26*
X21250000Y-113600000D03*
X21250000Y-116100000D03*
X21250000Y-118600000D03*
X21250000Y-121100000D03*
G04 #@! TD*
D10*
G04 #@! TO.C,F5*
X23152500Y-79390000D03*
X45758500Y-79367000D03*
G04 #@! TD*
D16*
G04 #@! TO.C,C3*
X26240000Y-171172599D03*
D17*
X26240000Y-169172599D03*
G04 #@! TD*
%LPD*%
M02*
