%TF.GenerationSoftware,KiCad,Pcbnew,9.0.2*%
%TF.CreationDate,2025-06-16T21:06:24+01:00*%
%TF.ProjectId,WS2812B_strip_driver_wled,57533238-3132-4425-9f73-747269705f64,rev?*%
%TF.SameCoordinates,Original*%
%TF.FileFunction,Drillmap*%
%TF.FilePolarity,Positive*%
%FSLAX45Y45*%
G04 Gerber Fmt 4.5, Leading zero omitted, Abs format (unit mm)*
G04 Created by KiCad (PCBNEW 9.0.2) date 2025-06-16 21:06:24*
%MOMM*%
%LPD*%
G01*
G04 APERTURE LIST*
%ADD10C,0.050000*%
%ADD11C,0.200000*%
%ADD12C,0.100000*%
%ADD13C,0.320000*%
G04 APERTURE END LIST*
D10*
X12600136Y-17809718D02*
X12600333Y-7597000D01*
X12397242Y-7395055D02*
X1516250Y-7395001D01*
X12600136Y-17809908D02*
G75*
G02*
X12399000Y-18012994I-200216J-2852D01*
G01*
X12397241Y-7395050D02*
G75*
G02*
X12600333Y-7597000I2859J-200220D01*
G01*
X1315000Y-7598092D02*
X1315000Y-17810938D01*
X1314864Y-7598092D02*
G75*
G02*
X1516000Y-7395000I200218J2856D01*
G01*
X1518092Y-18012500D02*
X12399000Y-18013000D01*
X1518092Y-18012136D02*
G75*
G02*
X1315000Y-17811000I-2856J200218D01*
G01*
X3577934Y-7936156D02*
G75*
G02*
X3317886Y-7936156I-130024J0D01*
G01*
X3317886Y-7936156D02*
G75*
G02*
X3577934Y-7936156I130024J0D01*
G01*
D11*
D12*
X5063500Y-8050000D02*
X5128500Y-8115000D01*
X5128500Y-8050000D02*
X5063500Y-8115000D01*
X5641500Y-8050000D02*
X5706500Y-8115000D01*
X5706500Y-8050000D02*
X5641500Y-8115000D01*
D13*
X1820000Y-7740000D02*
G75*
G02*
X1500000Y-7740000I-160000J0D01*
G01*
X1500000Y-7740000D02*
G75*
G02*
X1820000Y-7740000I160000J0D01*
G01*
X1820000Y-17660000D02*
G75*
G02*
X1500000Y-17660000I-160000J0D01*
G01*
X1500000Y-17660000D02*
G75*
G02*
X1820000Y-17660000I160000J0D01*
G01*
X12410000Y-7740000D02*
G75*
G02*
X12090000Y-7740000I-160000J0D01*
G01*
X12090000Y-7740000D02*
G75*
G02*
X12410000Y-7740000I160000J0D01*
G01*
X12410000Y-17660000D02*
G75*
G02*
X12090000Y-17660000I-160000J0D01*
G01*
X12090000Y-17660000D02*
G75*
G02*
X12410000Y-17660000I160000J0D01*
G01*
D11*
X1573120Y-18326984D02*
X1573120Y-18126984D01*
X1573120Y-18126984D02*
X1620739Y-18126984D01*
X1620739Y-18126984D02*
X1649311Y-18136508D01*
X1649311Y-18136508D02*
X1668358Y-18155555D01*
X1668358Y-18155555D02*
X1677882Y-18174603D01*
X1677882Y-18174603D02*
X1687406Y-18212698D01*
X1687406Y-18212698D02*
X1687406Y-18241270D01*
X1687406Y-18241270D02*
X1677882Y-18279365D01*
X1677882Y-18279365D02*
X1668358Y-18298412D01*
X1668358Y-18298412D02*
X1649311Y-18317460D01*
X1649311Y-18317460D02*
X1620739Y-18326984D01*
X1620739Y-18326984D02*
X1573120Y-18326984D01*
X1773120Y-18326984D02*
X1773120Y-18193650D01*
X1773120Y-18231746D02*
X1782644Y-18212698D01*
X1782644Y-18212698D02*
X1792168Y-18203174D01*
X1792168Y-18203174D02*
X1811215Y-18193650D01*
X1811215Y-18193650D02*
X1830263Y-18193650D01*
X1896930Y-18326984D02*
X1896930Y-18193650D01*
X1896930Y-18126984D02*
X1887406Y-18136508D01*
X1887406Y-18136508D02*
X1896930Y-18146031D01*
X1896930Y-18146031D02*
X1906454Y-18136508D01*
X1906454Y-18136508D02*
X1896930Y-18126984D01*
X1896930Y-18126984D02*
X1896930Y-18146031D01*
X2020739Y-18326984D02*
X2001692Y-18317460D01*
X2001692Y-18317460D02*
X1992168Y-18298412D01*
X1992168Y-18298412D02*
X1992168Y-18126984D01*
X2125501Y-18326984D02*
X2106454Y-18317460D01*
X2106454Y-18317460D02*
X2096930Y-18298412D01*
X2096930Y-18298412D02*
X2096930Y-18126984D01*
X2354073Y-18326984D02*
X2354073Y-18126984D01*
X2354073Y-18126984D02*
X2420739Y-18269841D01*
X2420739Y-18269841D02*
X2487406Y-18126984D01*
X2487406Y-18126984D02*
X2487406Y-18326984D01*
X2668358Y-18326984D02*
X2668358Y-18222222D01*
X2668358Y-18222222D02*
X2658835Y-18203174D01*
X2658835Y-18203174D02*
X2639787Y-18193650D01*
X2639787Y-18193650D02*
X2601692Y-18193650D01*
X2601692Y-18193650D02*
X2582644Y-18203174D01*
X2668358Y-18317460D02*
X2649311Y-18326984D01*
X2649311Y-18326984D02*
X2601692Y-18326984D01*
X2601692Y-18326984D02*
X2582644Y-18317460D01*
X2582644Y-18317460D02*
X2573120Y-18298412D01*
X2573120Y-18298412D02*
X2573120Y-18279365D01*
X2573120Y-18279365D02*
X2582644Y-18260317D01*
X2582644Y-18260317D02*
X2601692Y-18250793D01*
X2601692Y-18250793D02*
X2649311Y-18250793D01*
X2649311Y-18250793D02*
X2668358Y-18241270D01*
X2763597Y-18193650D02*
X2763597Y-18393650D01*
X2763597Y-18203174D02*
X2782644Y-18193650D01*
X2782644Y-18193650D02*
X2820739Y-18193650D01*
X2820739Y-18193650D02*
X2839787Y-18203174D01*
X2839787Y-18203174D02*
X2849311Y-18212698D01*
X2849311Y-18212698D02*
X2858835Y-18231746D01*
X2858835Y-18231746D02*
X2858835Y-18288889D01*
X2858835Y-18288889D02*
X2849311Y-18307936D01*
X2849311Y-18307936D02*
X2839787Y-18317460D01*
X2839787Y-18317460D02*
X2820739Y-18326984D01*
X2820739Y-18326984D02*
X2782644Y-18326984D01*
X2782644Y-18326984D02*
X2763597Y-18317460D01*
X2944549Y-18307936D02*
X2954073Y-18317460D01*
X2954073Y-18317460D02*
X2944549Y-18326984D01*
X2944549Y-18326984D02*
X2935025Y-18317460D01*
X2935025Y-18317460D02*
X2944549Y-18307936D01*
X2944549Y-18307936D02*
X2944549Y-18326984D01*
X2944549Y-18203174D02*
X2954073Y-18212698D01*
X2954073Y-18212698D02*
X2944549Y-18222222D01*
X2944549Y-18222222D02*
X2935025Y-18212698D01*
X2935025Y-18212698D02*
X2944549Y-18203174D01*
X2944549Y-18203174D02*
X2944549Y-18222222D01*
D12*
X1247344Y-18623000D02*
X1312344Y-18688000D01*
X1312344Y-18623000D02*
X1247344Y-18688000D01*
D11*
X1611215Y-18546984D02*
X1630263Y-18546984D01*
X1630263Y-18546984D02*
X1649311Y-18556508D01*
X1649311Y-18556508D02*
X1658835Y-18566031D01*
X1658835Y-18566031D02*
X1668358Y-18585079D01*
X1668358Y-18585079D02*
X1677882Y-18623174D01*
X1677882Y-18623174D02*
X1677882Y-18670793D01*
X1677882Y-18670793D02*
X1668358Y-18708889D01*
X1668358Y-18708889D02*
X1658835Y-18727936D01*
X1658835Y-18727936D02*
X1649311Y-18737460D01*
X1649311Y-18737460D02*
X1630263Y-18746984D01*
X1630263Y-18746984D02*
X1611215Y-18746984D01*
X1611215Y-18746984D02*
X1592168Y-18737460D01*
X1592168Y-18737460D02*
X1582644Y-18727936D01*
X1582644Y-18727936D02*
X1573120Y-18708889D01*
X1573120Y-18708889D02*
X1563596Y-18670793D01*
X1563596Y-18670793D02*
X1563596Y-18623174D01*
X1563596Y-18623174D02*
X1573120Y-18585079D01*
X1573120Y-18585079D02*
X1582644Y-18566031D01*
X1582644Y-18566031D02*
X1592168Y-18556508D01*
X1592168Y-18556508D02*
X1611215Y-18546984D01*
X1763596Y-18727936D02*
X1773120Y-18737460D01*
X1773120Y-18737460D02*
X1763596Y-18746984D01*
X1763596Y-18746984D02*
X1754073Y-18737460D01*
X1754073Y-18737460D02*
X1763596Y-18727936D01*
X1763596Y-18727936D02*
X1763596Y-18746984D01*
X1944549Y-18546984D02*
X1906454Y-18546984D01*
X1906454Y-18546984D02*
X1887406Y-18556508D01*
X1887406Y-18556508D02*
X1877882Y-18566031D01*
X1877882Y-18566031D02*
X1858835Y-18594603D01*
X1858835Y-18594603D02*
X1849311Y-18632698D01*
X1849311Y-18632698D02*
X1849311Y-18708889D01*
X1849311Y-18708889D02*
X1858835Y-18727936D01*
X1858835Y-18727936D02*
X1868358Y-18737460D01*
X1868358Y-18737460D02*
X1887406Y-18746984D01*
X1887406Y-18746984D02*
X1925501Y-18746984D01*
X1925501Y-18746984D02*
X1944549Y-18737460D01*
X1944549Y-18737460D02*
X1954073Y-18727936D01*
X1954073Y-18727936D02*
X1963596Y-18708889D01*
X1963596Y-18708889D02*
X1963596Y-18661270D01*
X1963596Y-18661270D02*
X1954073Y-18642222D01*
X1954073Y-18642222D02*
X1944549Y-18632698D01*
X1944549Y-18632698D02*
X1925501Y-18623174D01*
X1925501Y-18623174D02*
X1887406Y-18623174D01*
X1887406Y-18623174D02*
X1868358Y-18632698D01*
X1868358Y-18632698D02*
X1858835Y-18642222D01*
X1858835Y-18642222D02*
X1849311Y-18661270D01*
X2144549Y-18546984D02*
X2049311Y-18546984D01*
X2049311Y-18546984D02*
X2039787Y-18642222D01*
X2039787Y-18642222D02*
X2049311Y-18632698D01*
X2049311Y-18632698D02*
X2068358Y-18623174D01*
X2068358Y-18623174D02*
X2115978Y-18623174D01*
X2115978Y-18623174D02*
X2135025Y-18632698D01*
X2135025Y-18632698D02*
X2144549Y-18642222D01*
X2144549Y-18642222D02*
X2154073Y-18661270D01*
X2154073Y-18661270D02*
X2154073Y-18708889D01*
X2154073Y-18708889D02*
X2144549Y-18727936D01*
X2144549Y-18727936D02*
X2135025Y-18737460D01*
X2135025Y-18737460D02*
X2115978Y-18746984D01*
X2115978Y-18746984D02*
X2068358Y-18746984D01*
X2068358Y-18746984D02*
X2049311Y-18737460D01*
X2049311Y-18737460D02*
X2039787Y-18727936D01*
X2277882Y-18546984D02*
X2296930Y-18546984D01*
X2296930Y-18546984D02*
X2315978Y-18556508D01*
X2315978Y-18556508D02*
X2325501Y-18566031D01*
X2325501Y-18566031D02*
X2335025Y-18585079D01*
X2335025Y-18585079D02*
X2344549Y-18623174D01*
X2344549Y-18623174D02*
X2344549Y-18670793D01*
X2344549Y-18670793D02*
X2335025Y-18708889D01*
X2335025Y-18708889D02*
X2325501Y-18727936D01*
X2325501Y-18727936D02*
X2315978Y-18737460D01*
X2315978Y-18737460D02*
X2296930Y-18746984D01*
X2296930Y-18746984D02*
X2277882Y-18746984D01*
X2277882Y-18746984D02*
X2258835Y-18737460D01*
X2258835Y-18737460D02*
X2249311Y-18727936D01*
X2249311Y-18727936D02*
X2239787Y-18708889D01*
X2239787Y-18708889D02*
X2230263Y-18670793D01*
X2230263Y-18670793D02*
X2230263Y-18623174D01*
X2230263Y-18623174D02*
X2239787Y-18585079D01*
X2239787Y-18585079D02*
X2249311Y-18566031D01*
X2249311Y-18566031D02*
X2258835Y-18556508D01*
X2258835Y-18556508D02*
X2277882Y-18546984D01*
X2430263Y-18746984D02*
X2430263Y-18613650D01*
X2430263Y-18632698D02*
X2439787Y-18623174D01*
X2439787Y-18623174D02*
X2458835Y-18613650D01*
X2458835Y-18613650D02*
X2487406Y-18613650D01*
X2487406Y-18613650D02*
X2506454Y-18623174D01*
X2506454Y-18623174D02*
X2515978Y-18642222D01*
X2515978Y-18642222D02*
X2515978Y-18746984D01*
X2515978Y-18642222D02*
X2525501Y-18623174D01*
X2525501Y-18623174D02*
X2544549Y-18613650D01*
X2544549Y-18613650D02*
X2573120Y-18613650D01*
X2573120Y-18613650D02*
X2592168Y-18623174D01*
X2592168Y-18623174D02*
X2601692Y-18642222D01*
X2601692Y-18642222D02*
X2601692Y-18746984D01*
X2696930Y-18746984D02*
X2696930Y-18613650D01*
X2696930Y-18632698D02*
X2706454Y-18623174D01*
X2706454Y-18623174D02*
X2725501Y-18613650D01*
X2725501Y-18613650D02*
X2754073Y-18613650D01*
X2754073Y-18613650D02*
X2773120Y-18623174D01*
X2773120Y-18623174D02*
X2782644Y-18642222D01*
X2782644Y-18642222D02*
X2782644Y-18746984D01*
X2782644Y-18642222D02*
X2792168Y-18623174D01*
X2792168Y-18623174D02*
X2811216Y-18613650D01*
X2811216Y-18613650D02*
X2839787Y-18613650D01*
X2839787Y-18613650D02*
X2858835Y-18623174D01*
X2858835Y-18623174D02*
X2868358Y-18642222D01*
X2868358Y-18642222D02*
X2868358Y-18746984D01*
X3258835Y-18537460D02*
X3087406Y-18794603D01*
X3515978Y-18546984D02*
X3535025Y-18546984D01*
X3535025Y-18546984D02*
X3554073Y-18556508D01*
X3554073Y-18556508D02*
X3563597Y-18566031D01*
X3563597Y-18566031D02*
X3573120Y-18585079D01*
X3573120Y-18585079D02*
X3582644Y-18623174D01*
X3582644Y-18623174D02*
X3582644Y-18670793D01*
X3582644Y-18670793D02*
X3573120Y-18708889D01*
X3573120Y-18708889D02*
X3563597Y-18727936D01*
X3563597Y-18727936D02*
X3554073Y-18737460D01*
X3554073Y-18737460D02*
X3535025Y-18746984D01*
X3535025Y-18746984D02*
X3515978Y-18746984D01*
X3515978Y-18746984D02*
X3496930Y-18737460D01*
X3496930Y-18737460D02*
X3487406Y-18727936D01*
X3487406Y-18727936D02*
X3477882Y-18708889D01*
X3477882Y-18708889D02*
X3468359Y-18670793D01*
X3468359Y-18670793D02*
X3468359Y-18623174D01*
X3468359Y-18623174D02*
X3477882Y-18585079D01*
X3477882Y-18585079D02*
X3487406Y-18566031D01*
X3487406Y-18566031D02*
X3496930Y-18556508D01*
X3496930Y-18556508D02*
X3515978Y-18546984D01*
X3668359Y-18727936D02*
X3677882Y-18737460D01*
X3677882Y-18737460D02*
X3668359Y-18746984D01*
X3668359Y-18746984D02*
X3658835Y-18737460D01*
X3658835Y-18737460D02*
X3668359Y-18727936D01*
X3668359Y-18727936D02*
X3668359Y-18746984D01*
X3801692Y-18546984D02*
X3820740Y-18546984D01*
X3820740Y-18546984D02*
X3839787Y-18556508D01*
X3839787Y-18556508D02*
X3849311Y-18566031D01*
X3849311Y-18566031D02*
X3858835Y-18585079D01*
X3858835Y-18585079D02*
X3868359Y-18623174D01*
X3868359Y-18623174D02*
X3868359Y-18670793D01*
X3868359Y-18670793D02*
X3858835Y-18708889D01*
X3858835Y-18708889D02*
X3849311Y-18727936D01*
X3849311Y-18727936D02*
X3839787Y-18737460D01*
X3839787Y-18737460D02*
X3820740Y-18746984D01*
X3820740Y-18746984D02*
X3801692Y-18746984D01*
X3801692Y-18746984D02*
X3782644Y-18737460D01*
X3782644Y-18737460D02*
X3773120Y-18727936D01*
X3773120Y-18727936D02*
X3763597Y-18708889D01*
X3763597Y-18708889D02*
X3754073Y-18670793D01*
X3754073Y-18670793D02*
X3754073Y-18623174D01*
X3754073Y-18623174D02*
X3763597Y-18585079D01*
X3763597Y-18585079D02*
X3773120Y-18566031D01*
X3773120Y-18566031D02*
X3782644Y-18556508D01*
X3782644Y-18556508D02*
X3801692Y-18546984D01*
X3944549Y-18566031D02*
X3954073Y-18556508D01*
X3954073Y-18556508D02*
X3973120Y-18546984D01*
X3973120Y-18546984D02*
X4020740Y-18546984D01*
X4020740Y-18546984D02*
X4039787Y-18556508D01*
X4039787Y-18556508D02*
X4049311Y-18566031D01*
X4049311Y-18566031D02*
X4058835Y-18585079D01*
X4058835Y-18585079D02*
X4058835Y-18604127D01*
X4058835Y-18604127D02*
X4049311Y-18632698D01*
X4049311Y-18632698D02*
X3935025Y-18746984D01*
X3935025Y-18746984D02*
X4058835Y-18746984D01*
X4239787Y-18546984D02*
X4144549Y-18546984D01*
X4144549Y-18546984D02*
X4135025Y-18642222D01*
X4135025Y-18642222D02*
X4144549Y-18632698D01*
X4144549Y-18632698D02*
X4163597Y-18623174D01*
X4163597Y-18623174D02*
X4211216Y-18623174D01*
X4211216Y-18623174D02*
X4230263Y-18632698D01*
X4230263Y-18632698D02*
X4239787Y-18642222D01*
X4239787Y-18642222D02*
X4249311Y-18661270D01*
X4249311Y-18661270D02*
X4249311Y-18708889D01*
X4249311Y-18708889D02*
X4239787Y-18727936D01*
X4239787Y-18727936D02*
X4230263Y-18737460D01*
X4230263Y-18737460D02*
X4211216Y-18746984D01*
X4211216Y-18746984D02*
X4163597Y-18746984D01*
X4163597Y-18746984D02*
X4144549Y-18737460D01*
X4144549Y-18737460D02*
X4135025Y-18727936D01*
X4420740Y-18546984D02*
X4382644Y-18546984D01*
X4382644Y-18546984D02*
X4363597Y-18556508D01*
X4363597Y-18556508D02*
X4354073Y-18566031D01*
X4354073Y-18566031D02*
X4335025Y-18594603D01*
X4335025Y-18594603D02*
X4325502Y-18632698D01*
X4325502Y-18632698D02*
X4325502Y-18708889D01*
X4325502Y-18708889D02*
X4335025Y-18727936D01*
X4335025Y-18727936D02*
X4344549Y-18737460D01*
X4344549Y-18737460D02*
X4363597Y-18746984D01*
X4363597Y-18746984D02*
X4401692Y-18746984D01*
X4401692Y-18746984D02*
X4420740Y-18737460D01*
X4420740Y-18737460D02*
X4430263Y-18727936D01*
X4430263Y-18727936D02*
X4439787Y-18708889D01*
X4439787Y-18708889D02*
X4439787Y-18661270D01*
X4439787Y-18661270D02*
X4430263Y-18642222D01*
X4430263Y-18642222D02*
X4420740Y-18632698D01*
X4420740Y-18632698D02*
X4401692Y-18623174D01*
X4401692Y-18623174D02*
X4363597Y-18623174D01*
X4363597Y-18623174D02*
X4344549Y-18632698D01*
X4344549Y-18632698D02*
X4335025Y-18642222D01*
X4335025Y-18642222D02*
X4325502Y-18661270D01*
X4515978Y-18546984D02*
X4515978Y-18585079D01*
X4592168Y-18546984D02*
X4592168Y-18585079D01*
X4887406Y-18823174D02*
X4877883Y-18813650D01*
X4877883Y-18813650D02*
X4858835Y-18785079D01*
X4858835Y-18785079D02*
X4849311Y-18766031D01*
X4849311Y-18766031D02*
X4839787Y-18737460D01*
X4839787Y-18737460D02*
X4830264Y-18689841D01*
X4830264Y-18689841D02*
X4830264Y-18651746D01*
X4830264Y-18651746D02*
X4839787Y-18604127D01*
X4839787Y-18604127D02*
X4849311Y-18575555D01*
X4849311Y-18575555D02*
X4858835Y-18556508D01*
X4858835Y-18556508D02*
X4877883Y-18527936D01*
X4877883Y-18527936D02*
X4887406Y-18518412D01*
X4954073Y-18566031D02*
X4963597Y-18556508D01*
X4963597Y-18556508D02*
X4982644Y-18546984D01*
X4982644Y-18546984D02*
X5030264Y-18546984D01*
X5030264Y-18546984D02*
X5049311Y-18556508D01*
X5049311Y-18556508D02*
X5058835Y-18566031D01*
X5058835Y-18566031D02*
X5068359Y-18585079D01*
X5068359Y-18585079D02*
X5068359Y-18604127D01*
X5068359Y-18604127D02*
X5058835Y-18632698D01*
X5058835Y-18632698D02*
X4944549Y-18746984D01*
X4944549Y-18746984D02*
X5068359Y-18746984D01*
X5306454Y-18746984D02*
X5306454Y-18546984D01*
X5392168Y-18746984D02*
X5392168Y-18642222D01*
X5392168Y-18642222D02*
X5382645Y-18623174D01*
X5382645Y-18623174D02*
X5363597Y-18613650D01*
X5363597Y-18613650D02*
X5335025Y-18613650D01*
X5335025Y-18613650D02*
X5315978Y-18623174D01*
X5315978Y-18623174D02*
X5306454Y-18632698D01*
X5515978Y-18746984D02*
X5496930Y-18737460D01*
X5496930Y-18737460D02*
X5487406Y-18727936D01*
X5487406Y-18727936D02*
X5477883Y-18708889D01*
X5477883Y-18708889D02*
X5477883Y-18651746D01*
X5477883Y-18651746D02*
X5487406Y-18632698D01*
X5487406Y-18632698D02*
X5496930Y-18623174D01*
X5496930Y-18623174D02*
X5515978Y-18613650D01*
X5515978Y-18613650D02*
X5544549Y-18613650D01*
X5544549Y-18613650D02*
X5563597Y-18623174D01*
X5563597Y-18623174D02*
X5573121Y-18632698D01*
X5573121Y-18632698D02*
X5582645Y-18651746D01*
X5582645Y-18651746D02*
X5582645Y-18708889D01*
X5582645Y-18708889D02*
X5573121Y-18727936D01*
X5573121Y-18727936D02*
X5563597Y-18737460D01*
X5563597Y-18737460D02*
X5544549Y-18746984D01*
X5544549Y-18746984D02*
X5515978Y-18746984D01*
X5696930Y-18746984D02*
X5677883Y-18737460D01*
X5677883Y-18737460D02*
X5668359Y-18718412D01*
X5668359Y-18718412D02*
X5668359Y-18546984D01*
X5849311Y-18737460D02*
X5830264Y-18746984D01*
X5830264Y-18746984D02*
X5792168Y-18746984D01*
X5792168Y-18746984D02*
X5773121Y-18737460D01*
X5773121Y-18737460D02*
X5763597Y-18718412D01*
X5763597Y-18718412D02*
X5763597Y-18642222D01*
X5763597Y-18642222D02*
X5773121Y-18623174D01*
X5773121Y-18623174D02*
X5792168Y-18613650D01*
X5792168Y-18613650D02*
X5830264Y-18613650D01*
X5830264Y-18613650D02*
X5849311Y-18623174D01*
X5849311Y-18623174D02*
X5858835Y-18642222D01*
X5858835Y-18642222D02*
X5858835Y-18661270D01*
X5858835Y-18661270D02*
X5763597Y-18680317D01*
X5935025Y-18737460D02*
X5954073Y-18746984D01*
X5954073Y-18746984D02*
X5992168Y-18746984D01*
X5992168Y-18746984D02*
X6011216Y-18737460D01*
X6011216Y-18737460D02*
X6020740Y-18718412D01*
X6020740Y-18718412D02*
X6020740Y-18708889D01*
X6020740Y-18708889D02*
X6011216Y-18689841D01*
X6011216Y-18689841D02*
X5992168Y-18680317D01*
X5992168Y-18680317D02*
X5963597Y-18680317D01*
X5963597Y-18680317D02*
X5944549Y-18670793D01*
X5944549Y-18670793D02*
X5935025Y-18651746D01*
X5935025Y-18651746D02*
X5935025Y-18642222D01*
X5935025Y-18642222D02*
X5944549Y-18623174D01*
X5944549Y-18623174D02*
X5963597Y-18613650D01*
X5963597Y-18613650D02*
X5992168Y-18613650D01*
X5992168Y-18613650D02*
X6011216Y-18623174D01*
X6087406Y-18823174D02*
X6096930Y-18813650D01*
X6096930Y-18813650D02*
X6115978Y-18785079D01*
X6115978Y-18785079D02*
X6125502Y-18766031D01*
X6125502Y-18766031D02*
X6135025Y-18737460D01*
X6135025Y-18737460D02*
X6144549Y-18689841D01*
X6144549Y-18689841D02*
X6144549Y-18651746D01*
X6144549Y-18651746D02*
X6135025Y-18604127D01*
X6135025Y-18604127D02*
X6125502Y-18575555D01*
X6125502Y-18575555D02*
X6115978Y-18556508D01*
X6115978Y-18556508D02*
X6096930Y-18527936D01*
X6096930Y-18527936D02*
X6087406Y-18518412D01*
X6449311Y-18823174D02*
X6439787Y-18813650D01*
X6439787Y-18813650D02*
X6420740Y-18785079D01*
X6420740Y-18785079D02*
X6411216Y-18766031D01*
X6411216Y-18766031D02*
X6401692Y-18737460D01*
X6401692Y-18737460D02*
X6392168Y-18689841D01*
X6392168Y-18689841D02*
X6392168Y-18651746D01*
X6392168Y-18651746D02*
X6401692Y-18604127D01*
X6401692Y-18604127D02*
X6411216Y-18575555D01*
X6411216Y-18575555D02*
X6420740Y-18556508D01*
X6420740Y-18556508D02*
X6439787Y-18527936D01*
X6439787Y-18527936D02*
X6449311Y-18518412D01*
X6525502Y-18613650D02*
X6525502Y-18746984D01*
X6525502Y-18632698D02*
X6535025Y-18623174D01*
X6535025Y-18623174D02*
X6554073Y-18613650D01*
X6554073Y-18613650D02*
X6582645Y-18613650D01*
X6582645Y-18613650D02*
X6601692Y-18623174D01*
X6601692Y-18623174D02*
X6611216Y-18642222D01*
X6611216Y-18642222D02*
X6611216Y-18746984D01*
X6735025Y-18746984D02*
X6715978Y-18737460D01*
X6715978Y-18737460D02*
X6706454Y-18727936D01*
X6706454Y-18727936D02*
X6696930Y-18708889D01*
X6696930Y-18708889D02*
X6696930Y-18651746D01*
X6696930Y-18651746D02*
X6706454Y-18632698D01*
X6706454Y-18632698D02*
X6715978Y-18623174D01*
X6715978Y-18623174D02*
X6735025Y-18613650D01*
X6735025Y-18613650D02*
X6763597Y-18613650D01*
X6763597Y-18613650D02*
X6782645Y-18623174D01*
X6782645Y-18623174D02*
X6792168Y-18632698D01*
X6792168Y-18632698D02*
X6801692Y-18651746D01*
X6801692Y-18651746D02*
X6801692Y-18708889D01*
X6801692Y-18708889D02*
X6792168Y-18727936D01*
X6792168Y-18727936D02*
X6782645Y-18737460D01*
X6782645Y-18737460D02*
X6763597Y-18746984D01*
X6763597Y-18746984D02*
X6735025Y-18746984D01*
X6858835Y-18613650D02*
X6935025Y-18613650D01*
X6887406Y-18546984D02*
X6887406Y-18718412D01*
X6887406Y-18718412D02*
X6896930Y-18737460D01*
X6896930Y-18737460D02*
X6915978Y-18746984D01*
X6915978Y-18746984D02*
X6935025Y-18746984D01*
X7154073Y-18613650D02*
X7154073Y-18813650D01*
X7154073Y-18623174D02*
X7173121Y-18613650D01*
X7173121Y-18613650D02*
X7211216Y-18613650D01*
X7211216Y-18613650D02*
X7230264Y-18623174D01*
X7230264Y-18623174D02*
X7239787Y-18632698D01*
X7239787Y-18632698D02*
X7249311Y-18651746D01*
X7249311Y-18651746D02*
X7249311Y-18708889D01*
X7249311Y-18708889D02*
X7239787Y-18727936D01*
X7239787Y-18727936D02*
X7230264Y-18737460D01*
X7230264Y-18737460D02*
X7211216Y-18746984D01*
X7211216Y-18746984D02*
X7173121Y-18746984D01*
X7173121Y-18746984D02*
X7154073Y-18737460D01*
X7363597Y-18746984D02*
X7344549Y-18737460D01*
X7344549Y-18737460D02*
X7335026Y-18718412D01*
X7335026Y-18718412D02*
X7335026Y-18546984D01*
X7525502Y-18746984D02*
X7525502Y-18642222D01*
X7525502Y-18642222D02*
X7515978Y-18623174D01*
X7515978Y-18623174D02*
X7496930Y-18613650D01*
X7496930Y-18613650D02*
X7458835Y-18613650D01*
X7458835Y-18613650D02*
X7439787Y-18623174D01*
X7525502Y-18737460D02*
X7506454Y-18746984D01*
X7506454Y-18746984D02*
X7458835Y-18746984D01*
X7458835Y-18746984D02*
X7439787Y-18737460D01*
X7439787Y-18737460D02*
X7430264Y-18718412D01*
X7430264Y-18718412D02*
X7430264Y-18699365D01*
X7430264Y-18699365D02*
X7439787Y-18680317D01*
X7439787Y-18680317D02*
X7458835Y-18670793D01*
X7458835Y-18670793D02*
X7506454Y-18670793D01*
X7506454Y-18670793D02*
X7525502Y-18661270D01*
X7592168Y-18613650D02*
X7668359Y-18613650D01*
X7620740Y-18546984D02*
X7620740Y-18718412D01*
X7620740Y-18718412D02*
X7630264Y-18737460D01*
X7630264Y-18737460D02*
X7649311Y-18746984D01*
X7649311Y-18746984D02*
X7668359Y-18746984D01*
X7811216Y-18737460D02*
X7792168Y-18746984D01*
X7792168Y-18746984D02*
X7754073Y-18746984D01*
X7754073Y-18746984D02*
X7735026Y-18737460D01*
X7735026Y-18737460D02*
X7725502Y-18718412D01*
X7725502Y-18718412D02*
X7725502Y-18642222D01*
X7725502Y-18642222D02*
X7735026Y-18623174D01*
X7735026Y-18623174D02*
X7754073Y-18613650D01*
X7754073Y-18613650D02*
X7792168Y-18613650D01*
X7792168Y-18613650D02*
X7811216Y-18623174D01*
X7811216Y-18623174D02*
X7820740Y-18642222D01*
X7820740Y-18642222D02*
X7820740Y-18661270D01*
X7820740Y-18661270D02*
X7725502Y-18680317D01*
X7992168Y-18746984D02*
X7992168Y-18546984D01*
X7992168Y-18737460D02*
X7973121Y-18746984D01*
X7973121Y-18746984D02*
X7935026Y-18746984D01*
X7935026Y-18746984D02*
X7915978Y-18737460D01*
X7915978Y-18737460D02*
X7906454Y-18727936D01*
X7906454Y-18727936D02*
X7896930Y-18708889D01*
X7896930Y-18708889D02*
X7896930Y-18651746D01*
X7896930Y-18651746D02*
X7906454Y-18632698D01*
X7906454Y-18632698D02*
X7915978Y-18623174D01*
X7915978Y-18623174D02*
X7935026Y-18613650D01*
X7935026Y-18613650D02*
X7973121Y-18613650D01*
X7973121Y-18613650D02*
X7992168Y-18623174D01*
X8068359Y-18823174D02*
X8077883Y-18813650D01*
X8077883Y-18813650D02*
X8096930Y-18785079D01*
X8096930Y-18785079D02*
X8106454Y-18766031D01*
X8106454Y-18766031D02*
X8115978Y-18737460D01*
X8115978Y-18737460D02*
X8125502Y-18689841D01*
X8125502Y-18689841D02*
X8125502Y-18651746D01*
X8125502Y-18651746D02*
X8115978Y-18604127D01*
X8115978Y-18604127D02*
X8106454Y-18575555D01*
X8106454Y-18575555D02*
X8096930Y-18556508D01*
X8096930Y-18556508D02*
X8077883Y-18527936D01*
X8077883Y-18527936D02*
X8068359Y-18518412D01*
X1312344Y-18919500D02*
G75*
G02*
X1112344Y-18919500I-100000J0D01*
G01*
X1112344Y-18919500D02*
G75*
G02*
X1312344Y-18919500I100000J0D01*
G01*
X1554073Y-18810984D02*
X1677882Y-18810984D01*
X1677882Y-18810984D02*
X1611215Y-18887174D01*
X1611215Y-18887174D02*
X1639787Y-18887174D01*
X1639787Y-18887174D02*
X1658835Y-18896698D01*
X1658835Y-18896698D02*
X1668358Y-18906222D01*
X1668358Y-18906222D02*
X1677882Y-18925270D01*
X1677882Y-18925270D02*
X1677882Y-18972889D01*
X1677882Y-18972889D02*
X1668358Y-18991936D01*
X1668358Y-18991936D02*
X1658835Y-19001460D01*
X1658835Y-19001460D02*
X1639787Y-19010984D01*
X1639787Y-19010984D02*
X1582644Y-19010984D01*
X1582644Y-19010984D02*
X1563596Y-19001460D01*
X1563596Y-19001460D02*
X1554073Y-18991936D01*
X1763596Y-18991936D02*
X1773120Y-19001460D01*
X1773120Y-19001460D02*
X1763596Y-19010984D01*
X1763596Y-19010984D02*
X1754073Y-19001460D01*
X1754073Y-19001460D02*
X1763596Y-18991936D01*
X1763596Y-18991936D02*
X1763596Y-19010984D01*
X1849311Y-18830031D02*
X1858835Y-18820508D01*
X1858835Y-18820508D02*
X1877882Y-18810984D01*
X1877882Y-18810984D02*
X1925501Y-18810984D01*
X1925501Y-18810984D02*
X1944549Y-18820508D01*
X1944549Y-18820508D02*
X1954073Y-18830031D01*
X1954073Y-18830031D02*
X1963596Y-18849079D01*
X1963596Y-18849079D02*
X1963596Y-18868127D01*
X1963596Y-18868127D02*
X1954073Y-18896698D01*
X1954073Y-18896698D02*
X1839787Y-19010984D01*
X1839787Y-19010984D02*
X1963596Y-19010984D01*
X2087406Y-18810984D02*
X2106454Y-18810984D01*
X2106454Y-18810984D02*
X2125501Y-18820508D01*
X2125501Y-18820508D02*
X2135025Y-18830031D01*
X2135025Y-18830031D02*
X2144549Y-18849079D01*
X2144549Y-18849079D02*
X2154073Y-18887174D01*
X2154073Y-18887174D02*
X2154073Y-18934793D01*
X2154073Y-18934793D02*
X2144549Y-18972889D01*
X2144549Y-18972889D02*
X2135025Y-18991936D01*
X2135025Y-18991936D02*
X2125501Y-19001460D01*
X2125501Y-19001460D02*
X2106454Y-19010984D01*
X2106454Y-19010984D02*
X2087406Y-19010984D01*
X2087406Y-19010984D02*
X2068358Y-19001460D01*
X2068358Y-19001460D02*
X2058835Y-18991936D01*
X2058835Y-18991936D02*
X2049311Y-18972889D01*
X2049311Y-18972889D02*
X2039787Y-18934793D01*
X2039787Y-18934793D02*
X2039787Y-18887174D01*
X2039787Y-18887174D02*
X2049311Y-18849079D01*
X2049311Y-18849079D02*
X2058835Y-18830031D01*
X2058835Y-18830031D02*
X2068358Y-18820508D01*
X2068358Y-18820508D02*
X2087406Y-18810984D01*
X2277882Y-18810984D02*
X2296930Y-18810984D01*
X2296930Y-18810984D02*
X2315978Y-18820508D01*
X2315978Y-18820508D02*
X2325501Y-18830031D01*
X2325501Y-18830031D02*
X2335025Y-18849079D01*
X2335025Y-18849079D02*
X2344549Y-18887174D01*
X2344549Y-18887174D02*
X2344549Y-18934793D01*
X2344549Y-18934793D02*
X2335025Y-18972889D01*
X2335025Y-18972889D02*
X2325501Y-18991936D01*
X2325501Y-18991936D02*
X2315978Y-19001460D01*
X2315978Y-19001460D02*
X2296930Y-19010984D01*
X2296930Y-19010984D02*
X2277882Y-19010984D01*
X2277882Y-19010984D02*
X2258835Y-19001460D01*
X2258835Y-19001460D02*
X2249311Y-18991936D01*
X2249311Y-18991936D02*
X2239787Y-18972889D01*
X2239787Y-18972889D02*
X2230263Y-18934793D01*
X2230263Y-18934793D02*
X2230263Y-18887174D01*
X2230263Y-18887174D02*
X2239787Y-18849079D01*
X2239787Y-18849079D02*
X2249311Y-18830031D01*
X2249311Y-18830031D02*
X2258835Y-18820508D01*
X2258835Y-18820508D02*
X2277882Y-18810984D01*
X2430263Y-19010984D02*
X2430263Y-18877650D01*
X2430263Y-18896698D02*
X2439787Y-18887174D01*
X2439787Y-18887174D02*
X2458835Y-18877650D01*
X2458835Y-18877650D02*
X2487406Y-18877650D01*
X2487406Y-18877650D02*
X2506454Y-18887174D01*
X2506454Y-18887174D02*
X2515978Y-18906222D01*
X2515978Y-18906222D02*
X2515978Y-19010984D01*
X2515978Y-18906222D02*
X2525501Y-18887174D01*
X2525501Y-18887174D02*
X2544549Y-18877650D01*
X2544549Y-18877650D02*
X2573120Y-18877650D01*
X2573120Y-18877650D02*
X2592168Y-18887174D01*
X2592168Y-18887174D02*
X2601692Y-18906222D01*
X2601692Y-18906222D02*
X2601692Y-19010984D01*
X2696930Y-19010984D02*
X2696930Y-18877650D01*
X2696930Y-18896698D02*
X2706454Y-18887174D01*
X2706454Y-18887174D02*
X2725501Y-18877650D01*
X2725501Y-18877650D02*
X2754073Y-18877650D01*
X2754073Y-18877650D02*
X2773120Y-18887174D01*
X2773120Y-18887174D02*
X2782644Y-18906222D01*
X2782644Y-18906222D02*
X2782644Y-19010984D01*
X2782644Y-18906222D02*
X2792168Y-18887174D01*
X2792168Y-18887174D02*
X2811216Y-18877650D01*
X2811216Y-18877650D02*
X2839787Y-18877650D01*
X2839787Y-18877650D02*
X2858835Y-18887174D01*
X2858835Y-18887174D02*
X2868358Y-18906222D01*
X2868358Y-18906222D02*
X2868358Y-19010984D01*
X3258835Y-18801460D02*
X3087406Y-19058603D01*
X3515978Y-18810984D02*
X3535025Y-18810984D01*
X3535025Y-18810984D02*
X3554073Y-18820508D01*
X3554073Y-18820508D02*
X3563597Y-18830031D01*
X3563597Y-18830031D02*
X3573120Y-18849079D01*
X3573120Y-18849079D02*
X3582644Y-18887174D01*
X3582644Y-18887174D02*
X3582644Y-18934793D01*
X3582644Y-18934793D02*
X3573120Y-18972889D01*
X3573120Y-18972889D02*
X3563597Y-18991936D01*
X3563597Y-18991936D02*
X3554073Y-19001460D01*
X3554073Y-19001460D02*
X3535025Y-19010984D01*
X3535025Y-19010984D02*
X3515978Y-19010984D01*
X3515978Y-19010984D02*
X3496930Y-19001460D01*
X3496930Y-19001460D02*
X3487406Y-18991936D01*
X3487406Y-18991936D02*
X3477882Y-18972889D01*
X3477882Y-18972889D02*
X3468359Y-18934793D01*
X3468359Y-18934793D02*
X3468359Y-18887174D01*
X3468359Y-18887174D02*
X3477882Y-18849079D01*
X3477882Y-18849079D02*
X3487406Y-18830031D01*
X3487406Y-18830031D02*
X3496930Y-18820508D01*
X3496930Y-18820508D02*
X3515978Y-18810984D01*
X3668359Y-18991936D02*
X3677882Y-19001460D01*
X3677882Y-19001460D02*
X3668359Y-19010984D01*
X3668359Y-19010984D02*
X3658835Y-19001460D01*
X3658835Y-19001460D02*
X3668359Y-18991936D01*
X3668359Y-18991936D02*
X3668359Y-19010984D01*
X3868359Y-19010984D02*
X3754073Y-19010984D01*
X3811216Y-19010984D02*
X3811216Y-18810984D01*
X3811216Y-18810984D02*
X3792168Y-18839555D01*
X3792168Y-18839555D02*
X3773120Y-18858603D01*
X3773120Y-18858603D02*
X3754073Y-18868127D01*
X3944549Y-18830031D02*
X3954073Y-18820508D01*
X3954073Y-18820508D02*
X3973120Y-18810984D01*
X3973120Y-18810984D02*
X4020740Y-18810984D01*
X4020740Y-18810984D02*
X4039787Y-18820508D01*
X4039787Y-18820508D02*
X4049311Y-18830031D01*
X4049311Y-18830031D02*
X4058835Y-18849079D01*
X4058835Y-18849079D02*
X4058835Y-18868127D01*
X4058835Y-18868127D02*
X4049311Y-18896698D01*
X4049311Y-18896698D02*
X3935025Y-19010984D01*
X3935025Y-19010984D02*
X4058835Y-19010984D01*
X4230263Y-18810984D02*
X4192168Y-18810984D01*
X4192168Y-18810984D02*
X4173120Y-18820508D01*
X4173120Y-18820508D02*
X4163597Y-18830031D01*
X4163597Y-18830031D02*
X4144549Y-18858603D01*
X4144549Y-18858603D02*
X4135025Y-18896698D01*
X4135025Y-18896698D02*
X4135025Y-18972889D01*
X4135025Y-18972889D02*
X4144549Y-18991936D01*
X4144549Y-18991936D02*
X4154073Y-19001460D01*
X4154073Y-19001460D02*
X4173120Y-19010984D01*
X4173120Y-19010984D02*
X4211216Y-19010984D01*
X4211216Y-19010984D02*
X4230263Y-19001460D01*
X4230263Y-19001460D02*
X4239787Y-18991936D01*
X4239787Y-18991936D02*
X4249311Y-18972889D01*
X4249311Y-18972889D02*
X4249311Y-18925270D01*
X4249311Y-18925270D02*
X4239787Y-18906222D01*
X4239787Y-18906222D02*
X4230263Y-18896698D01*
X4230263Y-18896698D02*
X4211216Y-18887174D01*
X4211216Y-18887174D02*
X4173120Y-18887174D01*
X4173120Y-18887174D02*
X4154073Y-18896698D01*
X4154073Y-18896698D02*
X4144549Y-18906222D01*
X4144549Y-18906222D02*
X4135025Y-18925270D01*
X4373121Y-18810984D02*
X4392168Y-18810984D01*
X4392168Y-18810984D02*
X4411216Y-18820508D01*
X4411216Y-18820508D02*
X4420740Y-18830031D01*
X4420740Y-18830031D02*
X4430263Y-18849079D01*
X4430263Y-18849079D02*
X4439787Y-18887174D01*
X4439787Y-18887174D02*
X4439787Y-18934793D01*
X4439787Y-18934793D02*
X4430263Y-18972889D01*
X4430263Y-18972889D02*
X4420740Y-18991936D01*
X4420740Y-18991936D02*
X4411216Y-19001460D01*
X4411216Y-19001460D02*
X4392168Y-19010984D01*
X4392168Y-19010984D02*
X4373121Y-19010984D01*
X4373121Y-19010984D02*
X4354073Y-19001460D01*
X4354073Y-19001460D02*
X4344549Y-18991936D01*
X4344549Y-18991936D02*
X4335025Y-18972889D01*
X4335025Y-18972889D02*
X4325502Y-18934793D01*
X4325502Y-18934793D02*
X4325502Y-18887174D01*
X4325502Y-18887174D02*
X4335025Y-18849079D01*
X4335025Y-18849079D02*
X4344549Y-18830031D01*
X4344549Y-18830031D02*
X4354073Y-18820508D01*
X4354073Y-18820508D02*
X4373121Y-18810984D01*
X4515978Y-18810984D02*
X4515978Y-18849079D01*
X4592168Y-18810984D02*
X4592168Y-18849079D01*
X4887406Y-19087174D02*
X4877883Y-19077650D01*
X4877883Y-19077650D02*
X4858835Y-19049079D01*
X4858835Y-19049079D02*
X4849311Y-19030031D01*
X4849311Y-19030031D02*
X4839787Y-19001460D01*
X4839787Y-19001460D02*
X4830264Y-18953841D01*
X4830264Y-18953841D02*
X4830264Y-18915746D01*
X4830264Y-18915746D02*
X4839787Y-18868127D01*
X4839787Y-18868127D02*
X4849311Y-18839555D01*
X4849311Y-18839555D02*
X4858835Y-18820508D01*
X4858835Y-18820508D02*
X4877883Y-18791936D01*
X4877883Y-18791936D02*
X4887406Y-18782412D01*
X5049311Y-18877650D02*
X5049311Y-19010984D01*
X5001692Y-18801460D02*
X4954073Y-18944317D01*
X4954073Y-18944317D02*
X5077883Y-18944317D01*
X5306454Y-19010984D02*
X5306454Y-18810984D01*
X5392168Y-19010984D02*
X5392168Y-18906222D01*
X5392168Y-18906222D02*
X5382645Y-18887174D01*
X5382645Y-18887174D02*
X5363597Y-18877650D01*
X5363597Y-18877650D02*
X5335025Y-18877650D01*
X5335025Y-18877650D02*
X5315978Y-18887174D01*
X5315978Y-18887174D02*
X5306454Y-18896698D01*
X5515978Y-19010984D02*
X5496930Y-19001460D01*
X5496930Y-19001460D02*
X5487406Y-18991936D01*
X5487406Y-18991936D02*
X5477883Y-18972889D01*
X5477883Y-18972889D02*
X5477883Y-18915746D01*
X5477883Y-18915746D02*
X5487406Y-18896698D01*
X5487406Y-18896698D02*
X5496930Y-18887174D01*
X5496930Y-18887174D02*
X5515978Y-18877650D01*
X5515978Y-18877650D02*
X5544549Y-18877650D01*
X5544549Y-18877650D02*
X5563597Y-18887174D01*
X5563597Y-18887174D02*
X5573121Y-18896698D01*
X5573121Y-18896698D02*
X5582645Y-18915746D01*
X5582645Y-18915746D02*
X5582645Y-18972889D01*
X5582645Y-18972889D02*
X5573121Y-18991936D01*
X5573121Y-18991936D02*
X5563597Y-19001460D01*
X5563597Y-19001460D02*
X5544549Y-19010984D01*
X5544549Y-19010984D02*
X5515978Y-19010984D01*
X5696930Y-19010984D02*
X5677883Y-19001460D01*
X5677883Y-19001460D02*
X5668359Y-18982412D01*
X5668359Y-18982412D02*
X5668359Y-18810984D01*
X5849311Y-19001460D02*
X5830264Y-19010984D01*
X5830264Y-19010984D02*
X5792168Y-19010984D01*
X5792168Y-19010984D02*
X5773121Y-19001460D01*
X5773121Y-19001460D02*
X5763597Y-18982412D01*
X5763597Y-18982412D02*
X5763597Y-18906222D01*
X5763597Y-18906222D02*
X5773121Y-18887174D01*
X5773121Y-18887174D02*
X5792168Y-18877650D01*
X5792168Y-18877650D02*
X5830264Y-18877650D01*
X5830264Y-18877650D02*
X5849311Y-18887174D01*
X5849311Y-18887174D02*
X5858835Y-18906222D01*
X5858835Y-18906222D02*
X5858835Y-18925270D01*
X5858835Y-18925270D02*
X5763597Y-18944317D01*
X5935025Y-19001460D02*
X5954073Y-19010984D01*
X5954073Y-19010984D02*
X5992168Y-19010984D01*
X5992168Y-19010984D02*
X6011216Y-19001460D01*
X6011216Y-19001460D02*
X6020740Y-18982412D01*
X6020740Y-18982412D02*
X6020740Y-18972889D01*
X6020740Y-18972889D02*
X6011216Y-18953841D01*
X6011216Y-18953841D02*
X5992168Y-18944317D01*
X5992168Y-18944317D02*
X5963597Y-18944317D01*
X5963597Y-18944317D02*
X5944549Y-18934793D01*
X5944549Y-18934793D02*
X5935025Y-18915746D01*
X5935025Y-18915746D02*
X5935025Y-18906222D01*
X5935025Y-18906222D02*
X5944549Y-18887174D01*
X5944549Y-18887174D02*
X5963597Y-18877650D01*
X5963597Y-18877650D02*
X5992168Y-18877650D01*
X5992168Y-18877650D02*
X6011216Y-18887174D01*
X6087406Y-19087174D02*
X6096930Y-19077650D01*
X6096930Y-19077650D02*
X6115978Y-19049079D01*
X6115978Y-19049079D02*
X6125502Y-19030031D01*
X6125502Y-19030031D02*
X6135025Y-19001460D01*
X6135025Y-19001460D02*
X6144549Y-18953841D01*
X6144549Y-18953841D02*
X6144549Y-18915746D01*
X6144549Y-18915746D02*
X6135025Y-18868127D01*
X6135025Y-18868127D02*
X6125502Y-18839555D01*
X6125502Y-18839555D02*
X6115978Y-18820508D01*
X6115978Y-18820508D02*
X6096930Y-18791936D01*
X6096930Y-18791936D02*
X6087406Y-18782412D01*
X6449311Y-19087174D02*
X6439787Y-19077650D01*
X6439787Y-19077650D02*
X6420740Y-19049079D01*
X6420740Y-19049079D02*
X6411216Y-19030031D01*
X6411216Y-19030031D02*
X6401692Y-19001460D01*
X6401692Y-19001460D02*
X6392168Y-18953841D01*
X6392168Y-18953841D02*
X6392168Y-18915746D01*
X6392168Y-18915746D02*
X6401692Y-18868127D01*
X6401692Y-18868127D02*
X6411216Y-18839555D01*
X6411216Y-18839555D02*
X6420740Y-18820508D01*
X6420740Y-18820508D02*
X6439787Y-18791936D01*
X6439787Y-18791936D02*
X6449311Y-18782412D01*
X6525502Y-18877650D02*
X6525502Y-19010984D01*
X6525502Y-18896698D02*
X6535025Y-18887174D01*
X6535025Y-18887174D02*
X6554073Y-18877650D01*
X6554073Y-18877650D02*
X6582645Y-18877650D01*
X6582645Y-18877650D02*
X6601692Y-18887174D01*
X6601692Y-18887174D02*
X6611216Y-18906222D01*
X6611216Y-18906222D02*
X6611216Y-19010984D01*
X6735025Y-19010984D02*
X6715978Y-19001460D01*
X6715978Y-19001460D02*
X6706454Y-18991936D01*
X6706454Y-18991936D02*
X6696930Y-18972889D01*
X6696930Y-18972889D02*
X6696930Y-18915746D01*
X6696930Y-18915746D02*
X6706454Y-18896698D01*
X6706454Y-18896698D02*
X6715978Y-18887174D01*
X6715978Y-18887174D02*
X6735025Y-18877650D01*
X6735025Y-18877650D02*
X6763597Y-18877650D01*
X6763597Y-18877650D02*
X6782645Y-18887174D01*
X6782645Y-18887174D02*
X6792168Y-18896698D01*
X6792168Y-18896698D02*
X6801692Y-18915746D01*
X6801692Y-18915746D02*
X6801692Y-18972889D01*
X6801692Y-18972889D02*
X6792168Y-18991936D01*
X6792168Y-18991936D02*
X6782645Y-19001460D01*
X6782645Y-19001460D02*
X6763597Y-19010984D01*
X6763597Y-19010984D02*
X6735025Y-19010984D01*
X6858835Y-18877650D02*
X6935025Y-18877650D01*
X6887406Y-18810984D02*
X6887406Y-18982412D01*
X6887406Y-18982412D02*
X6896930Y-19001460D01*
X6896930Y-19001460D02*
X6915978Y-19010984D01*
X6915978Y-19010984D02*
X6935025Y-19010984D01*
X7154073Y-18877650D02*
X7154073Y-19077650D01*
X7154073Y-18887174D02*
X7173121Y-18877650D01*
X7173121Y-18877650D02*
X7211216Y-18877650D01*
X7211216Y-18877650D02*
X7230264Y-18887174D01*
X7230264Y-18887174D02*
X7239787Y-18896698D01*
X7239787Y-18896698D02*
X7249311Y-18915746D01*
X7249311Y-18915746D02*
X7249311Y-18972889D01*
X7249311Y-18972889D02*
X7239787Y-18991936D01*
X7239787Y-18991936D02*
X7230264Y-19001460D01*
X7230264Y-19001460D02*
X7211216Y-19010984D01*
X7211216Y-19010984D02*
X7173121Y-19010984D01*
X7173121Y-19010984D02*
X7154073Y-19001460D01*
X7363597Y-19010984D02*
X7344549Y-19001460D01*
X7344549Y-19001460D02*
X7335026Y-18982412D01*
X7335026Y-18982412D02*
X7335026Y-18810984D01*
X7525502Y-19010984D02*
X7525502Y-18906222D01*
X7525502Y-18906222D02*
X7515978Y-18887174D01*
X7515978Y-18887174D02*
X7496930Y-18877650D01*
X7496930Y-18877650D02*
X7458835Y-18877650D01*
X7458835Y-18877650D02*
X7439787Y-18887174D01*
X7525502Y-19001460D02*
X7506454Y-19010984D01*
X7506454Y-19010984D02*
X7458835Y-19010984D01*
X7458835Y-19010984D02*
X7439787Y-19001460D01*
X7439787Y-19001460D02*
X7430264Y-18982412D01*
X7430264Y-18982412D02*
X7430264Y-18963365D01*
X7430264Y-18963365D02*
X7439787Y-18944317D01*
X7439787Y-18944317D02*
X7458835Y-18934793D01*
X7458835Y-18934793D02*
X7506454Y-18934793D01*
X7506454Y-18934793D02*
X7525502Y-18925270D01*
X7592168Y-18877650D02*
X7668359Y-18877650D01*
X7620740Y-18810984D02*
X7620740Y-18982412D01*
X7620740Y-18982412D02*
X7630264Y-19001460D01*
X7630264Y-19001460D02*
X7649311Y-19010984D01*
X7649311Y-19010984D02*
X7668359Y-19010984D01*
X7811216Y-19001460D02*
X7792168Y-19010984D01*
X7792168Y-19010984D02*
X7754073Y-19010984D01*
X7754073Y-19010984D02*
X7735026Y-19001460D01*
X7735026Y-19001460D02*
X7725502Y-18982412D01*
X7725502Y-18982412D02*
X7725502Y-18906222D01*
X7725502Y-18906222D02*
X7735026Y-18887174D01*
X7735026Y-18887174D02*
X7754073Y-18877650D01*
X7754073Y-18877650D02*
X7792168Y-18877650D01*
X7792168Y-18877650D02*
X7811216Y-18887174D01*
X7811216Y-18887174D02*
X7820740Y-18906222D01*
X7820740Y-18906222D02*
X7820740Y-18925270D01*
X7820740Y-18925270D02*
X7725502Y-18944317D01*
X7992168Y-19010984D02*
X7992168Y-18810984D01*
X7992168Y-19001460D02*
X7973121Y-19010984D01*
X7973121Y-19010984D02*
X7935026Y-19010984D01*
X7935026Y-19010984D02*
X7915978Y-19001460D01*
X7915978Y-19001460D02*
X7906454Y-18991936D01*
X7906454Y-18991936D02*
X7896930Y-18972889D01*
X7896930Y-18972889D02*
X7896930Y-18915746D01*
X7896930Y-18915746D02*
X7906454Y-18896698D01*
X7906454Y-18896698D02*
X7915978Y-18887174D01*
X7915978Y-18887174D02*
X7935026Y-18877650D01*
X7935026Y-18877650D02*
X7973121Y-18877650D01*
X7973121Y-18877650D02*
X7992168Y-18887174D01*
X8068359Y-19087174D02*
X8077883Y-19077650D01*
X8077883Y-19077650D02*
X8096930Y-19049079D01*
X8096930Y-19049079D02*
X8106454Y-19030031D01*
X8106454Y-19030031D02*
X8115978Y-19001460D01*
X8115978Y-19001460D02*
X8125502Y-18953841D01*
X8125502Y-18953841D02*
X8125502Y-18915746D01*
X8125502Y-18915746D02*
X8115978Y-18868127D01*
X8115978Y-18868127D02*
X8106454Y-18839555D01*
X8106454Y-18839555D02*
X8096930Y-18820508D01*
X8096930Y-18820508D02*
X8077883Y-18791936D01*
X8077883Y-18791936D02*
X8068359Y-18782412D01*
M02*
