G04 #@! TF.GenerationSoftware,KiCad,Pcbnew,9.0.2*
G04 #@! TF.CreationDate,2025-06-16T21:06:24+01:00*
G04 #@! TF.ProjectId,WS2812B_strip_driver_wled,57533238-3132-4425-9f73-747269705f64,rev?*
G04 #@! TF.SameCoordinates,Original*
G04 #@! TF.FileFunction,Other,User*
%FSLAX46Y46*%
G04 Gerber Fmt 4.6, Leading zero omitted, Abs format (unit mm)*
G04 Created by KiCad (PCBNEW 9.0.2) date 2025-06-16 21:06:24*
%MOMM*%
%LPD*%
G01*
G04 APERTURE LIST*
%ADD10C,0.050000*%
G04 APERTURE END LIST*
D10*
G04 #@! TO.C,Q1*
X74817500Y-88489503D02*
X75847500Y-88489503D01*
X74817500Y-91489503D02*
X74817500Y-88489503D01*
X75847500Y-88289503D02*
X77647500Y-88289503D01*
X75847500Y-88489503D02*
X75847500Y-88289503D01*
X75847500Y-91489503D02*
X74817500Y-91489503D01*
X75847500Y-91689503D02*
X75847500Y-91489503D01*
X77647500Y-88289503D02*
X77647500Y-89439503D01*
X77647500Y-89439503D02*
X78677500Y-89439503D01*
X77647500Y-90539503D02*
X77647500Y-91689503D01*
X77647500Y-91689503D02*
X75847500Y-91689503D01*
X78677500Y-89439503D02*
X78677500Y-90539503D01*
X78677500Y-90539503D02*
X77647500Y-90539503D01*
G04 #@! TO.C,R5*
X75460000Y-84009183D02*
X78820000Y-84009183D01*
X75460000Y-85909183D02*
X75460000Y-84009183D01*
X78820000Y-84009183D02*
X78820000Y-85909183D01*
X78820000Y-85909183D02*
X75460000Y-85909183D01*
G04 #@! TO.C,R1*
X75460000Y-86089503D02*
X78820000Y-86089503D01*
X75460000Y-87989503D02*
X75460000Y-86089503D01*
X78820000Y-86089503D02*
X78820000Y-87989503D01*
X78820000Y-87989503D02*
X75460000Y-87989503D01*
G04 #@! TO.C,D6*
X74875000Y-91939503D02*
X81575000Y-91939503D01*
X74875000Y-101739503D02*
X74875000Y-91939503D01*
X81575000Y-91939503D02*
X81575000Y-101739503D01*
X81575000Y-101739503D02*
X74875000Y-101739503D01*
G04 #@! TO.C,K1*
X82425000Y-85349503D02*
X82425000Y-101549503D01*
X82425000Y-101549503D02*
X102225000Y-101549503D01*
X102225000Y-85349503D02*
X82425000Y-85349503D01*
X102225000Y-101549503D02*
X102225000Y-85349503D01*
G04 #@! TO.C,J1*
X114790000Y-85534503D02*
X114790000Y-101784503D01*
X114790000Y-101784503D02*
X125600000Y-101784503D01*
X125600000Y-85534503D02*
X114790000Y-85534503D01*
X125600000Y-101784503D02*
X125600000Y-85534503D01*
G04 #@! TO.C,R12*
X111068708Y-91550091D02*
X114428708Y-91550091D01*
X111068708Y-93450091D02*
X111068708Y-91550091D01*
X114428708Y-91550091D02*
X114428708Y-93450091D01*
X114428708Y-93450091D02*
X111068708Y-93450091D01*
G04 #@! TO.C,D1*
X110911208Y-95740091D02*
X114411208Y-95740091D01*
X110911208Y-99140091D02*
X110911208Y-95740091D01*
X114411208Y-95740091D02*
X114411208Y-99140091D01*
X114411208Y-99140091D02*
X110911208Y-99140091D01*
G04 #@! TO.C,F1*
X102920000Y-92584503D02*
X108880000Y-92584503D01*
X102920000Y-101784503D02*
X102920000Y-92584503D01*
X108880000Y-92584503D02*
X108880000Y-101784503D01*
X108880000Y-101784503D02*
X102920000Y-101784503D01*
G04 #@! TO.C,C13*
X111075000Y-86344503D02*
G75*
G02*
X102575000Y-86344503I-4250000J0D01*
G01*
X102575000Y-86344503D02*
G75*
G02*
X111075000Y-86344503I4250000J0D01*
G01*
G04 #@! TO.C,TP_CH1*
X111220000Y-86080000D02*
X111220000Y-89080000D01*
X111220000Y-86080000D02*
X114220000Y-86080000D01*
X114220000Y-89080000D02*
X111220000Y-89080000D01*
X114220000Y-89080000D02*
X114220000Y-86080000D01*
G04 #@! TO.C,R6*
X75460000Y-107109669D02*
X78820000Y-107109669D01*
X75460000Y-109009669D02*
X75460000Y-107109669D01*
X78820000Y-107109669D02*
X78820000Y-109009669D01*
X78820000Y-109009669D02*
X75460000Y-109009669D01*
G04 #@! TO.C,K2*
X82425000Y-108471336D02*
X82425000Y-124671336D01*
X82425000Y-124671336D02*
X102225000Y-124671336D01*
X102225000Y-108471336D02*
X82425000Y-108471336D01*
X102225000Y-124671336D02*
X102225000Y-108471336D01*
G04 #@! TO.C,D7*
X74875000Y-115061336D02*
X81575000Y-115061336D01*
X74875000Y-124861336D02*
X74875000Y-115061336D01*
X81575000Y-115061336D02*
X81575000Y-124861336D01*
X81575000Y-124861336D02*
X74875000Y-124861336D01*
G04 #@! TO.C,D2*
X111090000Y-120259669D02*
X114590000Y-120259669D01*
X111090000Y-123659669D02*
X111090000Y-120259669D01*
X114590000Y-120259669D02*
X114590000Y-123659669D01*
X114590000Y-123659669D02*
X111090000Y-123659669D01*
G04 #@! TO.C,C12*
X111000000Y-109459669D02*
G75*
G02*
X102500000Y-109459669I-4250000J0D01*
G01*
X102500000Y-109459669D02*
G75*
G02*
X111000000Y-109459669I4250000J0D01*
G01*
G04 #@! TO.C,R2*
X75460000Y-109259669D02*
X78820000Y-109259669D01*
X75460000Y-111159669D02*
X75460000Y-109259669D01*
X78820000Y-109259669D02*
X78820000Y-111159669D01*
X78820000Y-111159669D02*
X75460000Y-111159669D01*
G04 #@! TO.C,F2*
X102920000Y-115706336D02*
X108880000Y-115706336D01*
X102920000Y-124906336D02*
X102920000Y-115706336D01*
X108880000Y-115706336D02*
X108880000Y-124906336D01*
X108880000Y-124906336D02*
X102920000Y-124906336D01*
G04 #@! TO.C,R11*
X111160000Y-116369669D02*
X114520000Y-116369669D01*
X111160000Y-118269669D02*
X111160000Y-116369669D01*
X114520000Y-116369669D02*
X114520000Y-118269669D01*
X114520000Y-118269669D02*
X111160000Y-118269669D01*
G04 #@! TO.C,J2*
X114790000Y-108656336D02*
X114790000Y-124906336D01*
X114790000Y-124906336D02*
X125600000Y-124906336D01*
X125600000Y-108656336D02*
X114790000Y-108656336D01*
X125600000Y-124906336D02*
X125600000Y-108656336D01*
G04 #@! TO.C,TP_CH2*
X111460000Y-109256336D02*
X111460000Y-112256336D01*
X111460000Y-109256336D02*
X114460000Y-109256336D01*
X114460000Y-112256336D02*
X111460000Y-112256336D01*
X114460000Y-112256336D02*
X114460000Y-109256336D01*
G04 #@! TO.C,Q2*
X74817500Y-111589669D02*
X75847500Y-111589669D01*
X74817500Y-114589669D02*
X74817500Y-111589669D01*
X75847500Y-111389669D02*
X77647500Y-111389669D01*
X75847500Y-111589669D02*
X75847500Y-111389669D01*
X75847500Y-114589669D02*
X74817500Y-114589669D01*
X75847500Y-114789669D02*
X75847500Y-114589669D01*
X77647500Y-111389669D02*
X77647500Y-112539669D01*
X77647500Y-112539669D02*
X78677500Y-112539669D01*
X77647500Y-113639669D02*
X77647500Y-114789669D01*
X77647500Y-114789669D02*
X75847500Y-114789669D01*
X78677500Y-112539669D02*
X78677500Y-113639669D01*
X78677500Y-113639669D02*
X77647500Y-113639669D01*
G04 #@! TO.C,TP_EN_CH4*
X69431420Y-157733090D02*
X69431420Y-161586910D01*
X67145420Y-157733090D02*
X67145420Y-161586910D01*
X67144780Y-157733090D02*
X69431420Y-157726110D01*
X67144780Y-161593890D02*
X69431420Y-161586910D01*
G04 #@! TO.C,D10*
X41370000Y-135450000D02*
X44870000Y-135450000D01*
X41370000Y-138850000D02*
X41370000Y-135450000D01*
X44870000Y-135450000D02*
X44870000Y-138850000D01*
X44870000Y-138850000D02*
X41370000Y-138850000D01*
G04 #@! TO.C,C10*
X110940000Y-133082485D02*
G75*
G02*
X102440000Y-133082485I-4250000J0D01*
G01*
X102440000Y-133082485D02*
G75*
G02*
X110940000Y-133082485I4250000J0D01*
G01*
G04 #@! TO.C,C2*
X30260000Y-86905199D02*
G75*
G02*
X25760000Y-86905199I-2250000J0D01*
G01*
X25760000Y-86905199D02*
G75*
G02*
X30260000Y-86905199I2250000J0D01*
G01*
G04 #@! TO.C,H1*
X20050000Y-77400000D02*
G75*
G02*
X13150000Y-77400000I-3450000J0D01*
G01*
X13150000Y-77400000D02*
G75*
G02*
X20050000Y-77400000I3450000J0D01*
G01*
G04 #@! TO.C,R7*
X75460000Y-130349834D02*
X78820000Y-130349834D01*
X75460000Y-132249834D02*
X75460000Y-130349834D01*
X78820000Y-130349834D02*
X78820000Y-132249834D01*
X78820000Y-132249834D02*
X75460000Y-132249834D01*
G04 #@! TO.C,TP_EN_CH1*
X67147000Y-91303890D02*
X69433640Y-91296910D01*
X67147000Y-87443090D02*
X69433640Y-87436110D01*
X67147640Y-87443090D02*
X67147640Y-91296910D01*
X69433640Y-87443090D02*
X69433640Y-91296910D01*
G04 #@! TO.C,D11*
X52140000Y-87540000D02*
X52140000Y-90040000D01*
X52140000Y-90040000D02*
X55740000Y-90040000D01*
X55740000Y-87540000D02*
X52140000Y-87540000D01*
X55740000Y-90040000D02*
X55740000Y-87540000D01*
G04 #@! TO.C,TP_DCD1*
X58640000Y-90480000D02*
X58640000Y-92480000D01*
X58640000Y-90480000D02*
X60640000Y-90480000D01*
X60640000Y-92480000D02*
X58640000Y-92480000D01*
X60640000Y-92480000D02*
X60640000Y-90480000D01*
G04 #@! TO.C,SW2*
X55461595Y-119817172D02*
X55461595Y-109717172D01*
X55461595Y-119817172D02*
X62261595Y-119817172D01*
X62261595Y-109717172D02*
X55461595Y-109717172D01*
X62261595Y-119817172D02*
X62261595Y-109717172D01*
G04 #@! TO.C,C4*
X20860000Y-158605000D02*
X22820000Y-158605000D01*
X20860000Y-162005000D02*
X20860000Y-158605000D01*
X22820000Y-158605000D02*
X22820000Y-162005000D01*
X22820000Y-162005000D02*
X20860000Y-162005000D01*
G04 #@! TO.C,U1*
X20045000Y-138630000D02*
X39895000Y-138630000D01*
X39895000Y-158130000D01*
X20045000Y-158130000D01*
X20045000Y-172630000D01*
X-1645000Y-172630000D01*
X-1645000Y-124130000D01*
X20045000Y-124130000D01*
X20045000Y-138630000D01*
G04 #@! TO.C,F4*
X102920000Y-162872500D02*
X108880000Y-162872500D01*
X102920000Y-172072500D02*
X102920000Y-162872500D01*
X108880000Y-162872500D02*
X108880000Y-172072500D01*
X108880000Y-172072500D02*
X102920000Y-172072500D01*
G04 #@! TO.C,C11*
X110940000Y-156960000D02*
G75*
G02*
X102440000Y-156960000I-4250000J0D01*
G01*
X102440000Y-156960000D02*
G75*
G02*
X110940000Y-156960000I4250000J0D01*
G01*
G04 #@! TO.C,R17*
X47302500Y-96470000D02*
X49202500Y-96470000D01*
X47302500Y-99830000D02*
X47302500Y-96470000D01*
X49202500Y-96470000D02*
X49202500Y-99830000D01*
X49202500Y-99830000D02*
X47302500Y-99830000D01*
G04 #@! TO.C,R19*
X51259095Y-107852172D02*
X54619095Y-107852172D01*
X51259095Y-109752172D02*
X51259095Y-107852172D01*
X54619095Y-107852172D02*
X54619095Y-109752172D01*
X54619095Y-109752172D02*
X51259095Y-109752172D01*
G04 #@! TO.C,TP_TXD0*
X23296680Y-129953090D02*
X25583320Y-129946110D01*
X23296680Y-133813890D02*
X25583320Y-133806910D01*
X23297320Y-129953090D02*
X23297320Y-133806910D01*
X25583320Y-129953090D02*
X25583320Y-133806910D01*
G04 #@! TO.C,TP_RXD0*
X26506680Y-129953090D02*
X28793320Y-129946110D01*
X26506680Y-133813890D02*
X28793320Y-133806910D01*
X26507320Y-129953090D02*
X26507320Y-133806910D01*
X28793320Y-129953090D02*
X28793320Y-133806910D01*
G04 #@! TO.C,R8*
X75460000Y-154330000D02*
X78820000Y-154330000D01*
X75460000Y-156230000D02*
X75460000Y-154330000D01*
X78820000Y-154330000D02*
X78820000Y-156230000D01*
X78820000Y-156230000D02*
X75460000Y-156230000D01*
G04 #@! TO.C,R27*
X56040000Y-83695000D02*
X57940000Y-83695000D01*
X56040000Y-87055000D02*
X56040000Y-83695000D01*
X57940000Y-83695000D02*
X57940000Y-87055000D01*
X57940000Y-87055000D02*
X56040000Y-87055000D01*
G04 #@! TO.C,TP_CH4*
X111410000Y-156400000D02*
X111410000Y-159400000D01*
X111410000Y-156400000D02*
X114410000Y-156400000D01*
X114410000Y-159400000D02*
X111410000Y-159400000D01*
X114410000Y-159400000D02*
X114410000Y-156400000D01*
G04 #@! TO.C,J4*
X114790000Y-155945000D02*
X114790000Y-172195000D01*
X114790000Y-172195000D02*
X125600000Y-172195000D01*
X125600000Y-155945000D02*
X114790000Y-155945000D01*
X125600000Y-172195000D02*
X125600000Y-155945000D01*
G04 #@! TO.C,J8*
X48530000Y-83495000D02*
X48530000Y-74075000D01*
X59170000Y-74075000D02*
X48530000Y-74075000D01*
X59170000Y-83495000D02*
X48530000Y-83495000D01*
X59170000Y-83495000D02*
X59170000Y-74075000D01*
G04 #@! TO.C,TP_IO23*
X20070000Y-130300000D02*
X20070000Y-132300000D01*
X20070000Y-130300000D02*
X22070000Y-130300000D01*
X22070000Y-132300000D02*
X20070000Y-132300000D01*
X22070000Y-132300000D02*
X22070000Y-130300000D01*
G04 #@! TO.C,TP_DSR1*
X58610000Y-95090000D02*
X58610000Y-93090000D01*
X58610000Y-95090000D02*
X60610000Y-95090000D01*
X60610000Y-93090000D02*
X58610000Y-93090000D01*
X60610000Y-93090000D02*
X60610000Y-95090000D01*
G04 #@! TO.C,R23*
X44950000Y-96470000D02*
X46850000Y-96470000D01*
X44950000Y-99830000D02*
X44950000Y-96470000D01*
X46850000Y-96470000D02*
X46850000Y-99830000D01*
X46850000Y-99830000D02*
X44950000Y-99830000D01*
G04 #@! TO.C,J5*
X13700000Y-89690000D02*
X13700000Y-105940000D01*
X13700000Y-105940000D02*
X24510000Y-105940000D01*
X24510000Y-89690000D02*
X13700000Y-89690000D01*
X24510000Y-105940000D02*
X24510000Y-89690000D01*
G04 #@! TO.C,U2*
X33300000Y-89775000D02*
X33300000Y-96975000D01*
X33300000Y-96975000D02*
X42100000Y-96975000D01*
X42100000Y-89775000D02*
X33300000Y-89775000D01*
X42100000Y-96975000D02*
X42100000Y-89775000D01*
G04 #@! TO.C,D8*
X74875000Y-138446917D02*
X81575000Y-138446917D01*
X74875000Y-148246917D02*
X74875000Y-138446917D01*
X81575000Y-138446917D02*
X81575000Y-148246917D01*
X81575000Y-148246917D02*
X74875000Y-148246917D01*
G04 #@! TO.C,H3*
X20050000Y-176600000D02*
G75*
G02*
X13150000Y-176600000I-3450000J0D01*
G01*
X13150000Y-176600000D02*
G75*
G02*
X20050000Y-176600000I3450000J0D01*
G01*
G04 #@! TO.C,D13*
X33800000Y-103380000D02*
X37300000Y-103380000D01*
X33800000Y-106780000D02*
X33800000Y-103380000D01*
X37300000Y-103380000D02*
X37300000Y-106780000D01*
X37300000Y-106780000D02*
X33800000Y-106780000D01*
G04 #@! TO.C,R13*
X29433793Y-100644412D02*
X32793793Y-100644412D01*
X29433793Y-102544412D02*
X29433793Y-100644412D01*
X32793793Y-100644412D02*
X32793793Y-102544412D01*
X32793793Y-102544412D02*
X29433793Y-102544412D01*
G04 #@! TO.C,C5*
X46710000Y-88910000D02*
X48670000Y-88910000D01*
X46710000Y-92310000D02*
X46710000Y-88910000D01*
X48670000Y-88910000D02*
X48670000Y-92310000D01*
X48670000Y-92310000D02*
X46710000Y-92310000D01*
G04 #@! TO.C,TP_IO_VP1*
X24025000Y-158350000D02*
X24025000Y-160350000D01*
X24025000Y-158350000D02*
X26025000Y-158350000D01*
X26025000Y-160350000D02*
X24025000Y-160350000D01*
X26025000Y-160350000D02*
X26025000Y-158350000D01*
G04 #@! TO.C,K4*
X82425000Y-155637500D02*
X82425000Y-171837500D01*
X82425000Y-171837500D02*
X102225000Y-171837500D01*
X102225000Y-155637500D02*
X82425000Y-155637500D01*
X102225000Y-171837500D02*
X102225000Y-155637500D01*
G04 #@! TO.C,R29*
X67750000Y-165690000D02*
X68690000Y-165690000D01*
X67750000Y-167550000D02*
X67750000Y-165690000D01*
X68690000Y-165690000D02*
X68690000Y-167550000D01*
X68690000Y-167550000D02*
X67750000Y-167550000D01*
G04 #@! TO.C,R3*
X75460000Y-132579834D02*
X78820000Y-132579834D01*
X75460000Y-134479834D02*
X75460000Y-132579834D01*
X78820000Y-132579834D02*
X78820000Y-134479834D01*
X78820000Y-134479834D02*
X75460000Y-134479834D01*
G04 #@! TO.C,U3*
X50990000Y-92895000D02*
X51340000Y-92895000D01*
X50990000Y-96655000D02*
X50990000Y-92895000D01*
X51340000Y-92025000D02*
X52210000Y-92025000D01*
X51340000Y-92895000D02*
X51340000Y-92025000D01*
X51340000Y-96655000D02*
X50990000Y-96655000D01*
X51340000Y-97525000D02*
X51340000Y-96655000D01*
X52210000Y-91675000D02*
X55970000Y-91675000D01*
X52210000Y-92025000D02*
X52210000Y-91675000D01*
X52210000Y-97525000D02*
X51340000Y-97525000D01*
X52210000Y-97875000D02*
X52210000Y-97525000D01*
X55970000Y-91675000D02*
X55970000Y-92025000D01*
X55970000Y-92025000D02*
X56840000Y-92025000D01*
X55970000Y-97525000D02*
X55970000Y-97875000D01*
X55970000Y-97875000D02*
X52210000Y-97875000D01*
X56840000Y-92025000D02*
X56840000Y-92895000D01*
X56840000Y-92895000D02*
X57190000Y-92895000D01*
X56840000Y-96655000D02*
X56840000Y-97525000D01*
X56840000Y-97525000D02*
X55970000Y-97525000D01*
X57190000Y-92895000D02*
X57190000Y-96655000D01*
X57190000Y-96655000D02*
X56840000Y-96655000D01*
G04 #@! TO.C,TP_IO4*
X35490000Y-134730000D02*
X35490000Y-136730000D01*
X35490000Y-134730000D02*
X37490000Y-134730000D01*
X37490000Y-136730000D02*
X35490000Y-136730000D01*
X37490000Y-136730000D02*
X37490000Y-134730000D01*
G04 #@! TO.C,TP_IO5*
X31365000Y-134730000D02*
X31365000Y-136730000D01*
X31365000Y-134730000D02*
X33365000Y-134730000D01*
X33365000Y-136730000D02*
X31365000Y-136730000D01*
X33365000Y-136730000D02*
X33365000Y-134730000D01*
G04 #@! TO.C,Q6*
X57149095Y-106667172D02*
X57349095Y-106667172D01*
X57149095Y-108467172D02*
X57149095Y-106667172D01*
X57349095Y-105637172D02*
X60349095Y-105637172D01*
X57349095Y-106667172D02*
X57349095Y-105637172D01*
X58299095Y-108467172D02*
X57149095Y-108467172D01*
X58299095Y-109497172D02*
X58299095Y-108467172D01*
X59399095Y-108467172D02*
X59399095Y-109497172D01*
X59399095Y-109497172D02*
X58299095Y-109497172D01*
X60349095Y-105637172D02*
X60349095Y-106667172D01*
X60349095Y-106667172D02*
X60549095Y-106667172D01*
X60549095Y-106667172D02*
X60549095Y-108467172D01*
X60549095Y-108467172D02*
X59399095Y-108467172D01*
G04 #@! TO.C,R25*
X67760000Y-118470000D02*
X68700000Y-118470000D01*
X67760000Y-120330000D02*
X67760000Y-118470000D01*
X68700000Y-118470000D02*
X68700000Y-120330000D01*
X68700000Y-120330000D02*
X67760000Y-120330000D01*
G04 #@! TO.C,TP_IO26*
X40340000Y-156080000D02*
X40340000Y-158080000D01*
X40340000Y-156080000D02*
X42340000Y-156080000D01*
X42340000Y-158080000D02*
X40340000Y-158080000D01*
X42340000Y-158080000D02*
X42340000Y-156080000D01*
G04 #@! TO.C,Q5*
X45487500Y-107270000D02*
X46517500Y-107270000D01*
X45487500Y-108370000D02*
X45487500Y-107270000D01*
X46517500Y-106120000D02*
X48317500Y-106120000D01*
X46517500Y-107270000D02*
X46517500Y-106120000D01*
X46517500Y-108370000D02*
X45487500Y-108370000D01*
X46517500Y-109520000D02*
X46517500Y-108370000D01*
X48317500Y-106120000D02*
X48317500Y-106320000D01*
X48317500Y-106320000D02*
X49347500Y-106320000D01*
X48317500Y-109320000D02*
X48317500Y-109520000D01*
X48317500Y-109520000D02*
X46517500Y-109520000D01*
X49347500Y-106320000D02*
X49347500Y-109320000D01*
X49347500Y-109320000D02*
X48317500Y-109320000D01*
G04 #@! TO.C,TP_EN_CH2*
X67147000Y-114863890D02*
X69433640Y-114856910D01*
X67147000Y-111003090D02*
X69433640Y-110996110D01*
X67147640Y-111003090D02*
X67147640Y-114856910D01*
X69433640Y-111003090D02*
X69433640Y-114856910D01*
G04 #@! TO.C,H4*
X125950000Y-176600000D02*
G75*
G02*
X119050000Y-176600000I-3450000J0D01*
G01*
X119050000Y-176600000D02*
G75*
G02*
X125950000Y-176600000I3450000J0D01*
G01*
G04 #@! TO.C,D4*
X111090000Y-167400000D02*
X114590000Y-167400000D01*
X111090000Y-170800000D02*
X111090000Y-167400000D01*
X114590000Y-167400000D02*
X114590000Y-170800000D01*
X114590000Y-170800000D02*
X111090000Y-170800000D01*
G04 #@! TO.C,K3*
X82425000Y-131856917D02*
X82425000Y-148056917D01*
X82425000Y-148056917D02*
X102225000Y-148056917D01*
X102225000Y-131856917D02*
X82425000Y-131856917D01*
X102225000Y-148056917D02*
X102225000Y-131856917D01*
G04 #@! TO.C,TP_IO35*
X24025000Y-166950000D02*
X24025000Y-164950000D01*
X24025000Y-166950000D02*
X26025000Y-166950000D01*
X26025000Y-164950000D02*
X24025000Y-164950000D01*
X26025000Y-164950000D02*
X26025000Y-166950000D01*
G04 #@! TO.C,TP1*
X15540000Y-84110000D02*
X15540000Y-87110000D01*
X15540000Y-84110000D02*
X18540000Y-84110000D01*
X18540000Y-87110000D02*
X15540000Y-87110000D01*
X18540000Y-87110000D02*
X18540000Y-84110000D01*
G04 #@! TO.C,TP14*
X26398090Y-118131360D02*
X30251910Y-118131360D01*
X26398090Y-120417360D02*
X30251910Y-120417360D01*
X26398090Y-120418000D02*
X26391110Y-118131360D01*
X30258890Y-120418000D02*
X30251910Y-118131360D01*
G04 #@! TO.C,R10*
X111160000Y-139869834D02*
X114520000Y-139869834D01*
X111160000Y-141769834D02*
X111160000Y-139869834D01*
X114520000Y-139869834D02*
X114520000Y-141769834D01*
X114520000Y-141769834D02*
X111160000Y-141769834D01*
G04 #@! TO.C,TP_IO22*
X21200000Y-132880000D02*
X21200000Y-134880000D01*
X21200000Y-132880000D02*
X23200000Y-132880000D01*
X23200000Y-134880000D02*
X21200000Y-134880000D01*
X23200000Y-134880000D02*
X23200000Y-132880000D01*
G04 #@! TO.C,TP_IO_VN1*
X24025000Y-162550000D02*
X24025000Y-160550000D01*
X24025000Y-162550000D02*
X26025000Y-162550000D01*
X26025000Y-160550000D02*
X24025000Y-160550000D01*
X26025000Y-160550000D02*
X26025000Y-162550000D01*
G04 #@! TO.C,R4*
X75460000Y-156480000D02*
X78820000Y-156480000D01*
X75460000Y-158380000D02*
X75460000Y-156480000D01*
X78820000Y-156480000D02*
X78820000Y-158380000D01*
X78820000Y-158380000D02*
X75460000Y-158380000D01*
G04 #@! TO.C,R14*
X56580000Y-87410000D02*
X58480000Y-87410000D01*
X56580000Y-90770000D02*
X56580000Y-87410000D01*
X58480000Y-87410000D02*
X58480000Y-90770000D01*
X58480000Y-90770000D02*
X56580000Y-90770000D01*
G04 #@! TO.C,C9*
X51000532Y-116417172D02*
X52960532Y-116417172D01*
X51000532Y-119817172D02*
X51000532Y-116417172D01*
X52960532Y-116417172D02*
X52960532Y-119817172D01*
X52960532Y-119817172D02*
X51000532Y-119817172D01*
G04 #@! TO.C,SW1*
X43930000Y-109717172D02*
X43930000Y-119817172D01*
X43930000Y-119817172D02*
X50730000Y-119817172D01*
X50730000Y-109717172D02*
X43930000Y-109717172D01*
X50730000Y-109717172D02*
X50730000Y-119817172D01*
G04 #@! TO.C,H2*
X125950000Y-77400000D02*
G75*
G02*
X119050000Y-77400000I-3450000J0D01*
G01*
X119050000Y-77400000D02*
G75*
G02*
X125950000Y-77400000I3450000J0D01*
G01*
G04 #@! TO.C,R41*
X33820000Y-100625000D02*
X37180000Y-100625000D01*
X33820000Y-102525000D02*
X33820000Y-100625000D01*
X37180000Y-100625000D02*
X37180000Y-102525000D01*
X37180000Y-102525000D02*
X33820000Y-102525000D01*
G04 #@! TO.C,TP_CTS1*
X58660000Y-99250000D02*
X58660000Y-97250000D01*
X58660000Y-99250000D02*
X60660000Y-99250000D01*
X60660000Y-97250000D02*
X58660000Y-97250000D01*
X60660000Y-97250000D02*
X60660000Y-99250000D01*
G04 #@! TO.C,R15*
X45120000Y-92780000D02*
X47020000Y-92780000D01*
X45120000Y-96140000D02*
X45120000Y-92780000D01*
X47020000Y-92780000D02*
X47020000Y-96140000D01*
X47020000Y-96140000D02*
X45120000Y-96140000D01*
G04 #@! TO.C,R18*
X20920000Y-168470000D02*
X22820000Y-168470000D01*
X20920000Y-171830000D02*
X20920000Y-168470000D01*
X22820000Y-168470000D02*
X22820000Y-171830000D01*
X22820000Y-171830000D02*
X20920000Y-171830000D01*
G04 #@! TO.C,R20*
X51259095Y-110177172D02*
X54619095Y-110177172D01*
X51259095Y-112077172D02*
X51259095Y-110177172D01*
X54619095Y-110177172D02*
X54619095Y-112077172D01*
X54619095Y-112077172D02*
X51259095Y-112077172D01*
G04 #@! TO.C,D12*
X46610000Y-84790000D02*
X46610000Y-86990000D01*
X46610000Y-84790000D02*
X51110000Y-84790000D01*
X51110000Y-84790000D02*
X51110000Y-86990000D01*
X51110000Y-86990000D02*
X46610000Y-86990000D01*
G04 #@! TO.C,D3*
X111090000Y-143729834D02*
X114590000Y-143729834D01*
X111090000Y-147129834D02*
X111090000Y-143729834D01*
X114590000Y-143729834D02*
X114590000Y-147129834D01*
X114590000Y-147129834D02*
X111090000Y-147129834D01*
G04 #@! TO.C,C8*
X53231063Y-116417172D02*
X55191063Y-116417172D01*
X53231063Y-119817172D02*
X53231063Y-116417172D01*
X55191063Y-116417172D02*
X55191063Y-119817172D01*
X55191063Y-119817172D02*
X53231063Y-119817172D01*
G04 #@! TO.C,R26*
X67760000Y-141870000D02*
X68700000Y-141870000D01*
X67760000Y-143730000D02*
X67760000Y-141870000D01*
X68700000Y-141870000D02*
X68700000Y-143730000D01*
X68700000Y-143730000D02*
X67760000Y-143730000D01*
G04 #@! TO.C,J3*
X114790000Y-132164417D02*
X114790000Y-148414417D01*
X114790000Y-148414417D02*
X125600000Y-148414417D01*
X125600000Y-132164417D02*
X114790000Y-132164417D01*
X125600000Y-148414417D02*
X125600000Y-132164417D01*
G04 #@! TO.C,R42*
X41490000Y-139965000D02*
X44850000Y-139965000D01*
X41490000Y-141865000D02*
X41490000Y-139965000D01*
X44850000Y-139965000D02*
X44850000Y-141865000D01*
X44850000Y-141865000D02*
X41490000Y-141865000D01*
G04 #@! TO.C,C7*
X20885000Y-163855000D02*
X22845000Y-163855000D01*
X20885000Y-167255000D02*
X20885000Y-163855000D01*
X22845000Y-163855000D02*
X22845000Y-167255000D01*
X22845000Y-167255000D02*
X20885000Y-167255000D01*
G04 #@! TO.C,R16*
X47200000Y-92800000D02*
X49100000Y-92800000D01*
X47200000Y-96160000D02*
X47200000Y-92800000D01*
X49100000Y-92800000D02*
X49100000Y-96160000D01*
X49100000Y-96160000D02*
X47200000Y-96160000D01*
G04 #@! TO.C,TP_CH3*
X111490000Y-132703167D02*
X111490000Y-135703167D01*
X111490000Y-132703167D02*
X114490000Y-132703167D01*
X114490000Y-135703167D02*
X111490000Y-135703167D01*
X114490000Y-135703167D02*
X114490000Y-132703167D01*
G04 #@! TO.C,C1*
X42170000Y-86960000D02*
G75*
G02*
X37670000Y-86960000I-2250000J0D01*
G01*
X37670000Y-86960000D02*
G75*
G02*
X42170000Y-86960000I2250000J0D01*
G01*
G04 #@! TO.C,TP_SUS1*
X49880000Y-99730000D02*
X49880000Y-97730000D01*
X49880000Y-99730000D02*
X51880000Y-99730000D01*
X51880000Y-97730000D02*
X49880000Y-97730000D01*
X51880000Y-97730000D02*
X51880000Y-99730000D01*
G04 #@! TO.C,R21*
X29612500Y-123790000D02*
X32972500Y-123790000D01*
X29612500Y-125690000D02*
X29612500Y-123790000D01*
X32972500Y-123790000D02*
X32972500Y-125690000D01*
X32972500Y-125690000D02*
X29612500Y-125690000D01*
G04 #@! TO.C,F3*
X102920000Y-139091917D02*
X108880000Y-139091917D01*
X102920000Y-148291917D02*
X102920000Y-139091917D01*
X108880000Y-139091917D02*
X108880000Y-148291917D01*
X108880000Y-148291917D02*
X102920000Y-148291917D01*
G04 #@! TO.C,TP2*
X26520000Y-91230000D02*
X26520000Y-94230000D01*
X26520000Y-91230000D02*
X29520000Y-91230000D01*
X29520000Y-94230000D02*
X26520000Y-94230000D01*
X29520000Y-94230000D02*
X29520000Y-91230000D01*
G04 #@! TO.C,TP_IO34*
X24025000Y-164750000D02*
X24025000Y-162750000D01*
X24025000Y-164750000D02*
X26025000Y-164750000D01*
X26025000Y-162750000D02*
X24025000Y-162750000D01*
X26025000Y-162750000D02*
X26025000Y-164750000D01*
G04 #@! TO.C,J6*
X13150000Y-108150000D02*
X13150000Y-124050000D01*
X13150000Y-124050000D02*
X25650000Y-124050000D01*
X25650000Y-108150000D02*
X13150000Y-108150000D01*
X25650000Y-124050000D02*
X25650000Y-108150000D01*
G04 #@! TO.C,TP13*
X26398090Y-111481680D02*
X30251910Y-111481680D01*
X26398090Y-113767680D02*
X30251910Y-113767680D01*
X26398090Y-113768320D02*
X26391110Y-111481680D01*
X30258890Y-113768320D02*
X30251910Y-111481680D01*
G04 #@! TO.C,R28*
X51370000Y-83570000D02*
X53270000Y-83570000D01*
X51370000Y-86930000D02*
X51370000Y-83570000D01*
X53270000Y-83570000D02*
X53270000Y-86930000D01*
X53270000Y-86930000D02*
X51370000Y-86930000D01*
G04 #@! TO.C,D5*
X29413793Y-103359412D02*
X32913793Y-103359412D01*
X29413793Y-106759412D02*
X29413793Y-103359412D01*
X32913793Y-103359412D02*
X32913793Y-106759412D01*
X32913793Y-106759412D02*
X29413793Y-106759412D01*
G04 #@! TO.C,D9*
X74875000Y-162227500D02*
X81575000Y-162227500D01*
X74875000Y-172027500D02*
X74875000Y-162227500D01*
X81575000Y-162227500D02*
X81575000Y-172027500D01*
X81575000Y-172027500D02*
X74875000Y-172027500D01*
G04 #@! TO.C,TP_IO21*
X28150000Y-135970000D02*
X28150000Y-137970000D01*
X28150000Y-135970000D02*
X30150000Y-135970000D01*
X30150000Y-137970000D02*
X28150000Y-137970000D01*
X30150000Y-137970000D02*
X30150000Y-135970000D01*
G04 #@! TO.C,R9*
X111160000Y-163430000D02*
X114520000Y-163430000D01*
X111160000Y-165330000D02*
X111160000Y-163430000D01*
X114520000Y-163430000D02*
X114520000Y-165330000D01*
X114520000Y-165330000D02*
X111160000Y-165330000D01*
G04 #@! TO.C,R22*
X29612500Y-125815000D02*
X32972500Y-125815000D01*
X29612500Y-127715000D02*
X29612500Y-125815000D01*
X32972500Y-125815000D02*
X32972500Y-127715000D01*
X32972500Y-127715000D02*
X29612500Y-127715000D01*
G04 #@! TO.C,TP_EN_CH3*
X67147000Y-137711200D02*
X69433640Y-137704220D01*
X67147000Y-133850400D02*
X69433640Y-133843420D01*
X67147640Y-133850400D02*
X67147640Y-137704220D01*
X69433640Y-133850400D02*
X69433640Y-137704220D01*
G04 #@! TO.C,TP15*
X26398090Y-114806520D02*
X30251910Y-114806520D01*
X26398090Y-117092520D02*
X30251910Y-117092520D01*
X26398090Y-117093160D02*
X26391110Y-114806520D01*
X30258890Y-117093160D02*
X30251910Y-114806520D01*
G04 #@! TO.C,TP_IO19*
X28910000Y-133820000D02*
X28910000Y-135820000D01*
X28910000Y-133820000D02*
X30910000Y-133820000D01*
X30910000Y-135820000D02*
X28910000Y-135820000D01*
X30910000Y-135820000D02*
X30910000Y-133820000D01*
G04 #@! TO.C,Q4*
X74817500Y-158900000D02*
X75847500Y-158900000D01*
X74817500Y-161900000D02*
X74817500Y-158900000D01*
X75847500Y-158700000D02*
X77647500Y-158700000D01*
X75847500Y-158900000D02*
X75847500Y-158700000D01*
X75847500Y-161900000D02*
X74817500Y-161900000D01*
X75847500Y-162100000D02*
X75847500Y-161900000D01*
X77647500Y-158700000D02*
X77647500Y-159850000D01*
X77647500Y-159850000D02*
X78677500Y-159850000D01*
X77647500Y-160950000D02*
X77647500Y-162100000D01*
X77647500Y-162100000D02*
X75847500Y-162100000D01*
X78677500Y-159850000D02*
X78677500Y-160950000D01*
X78677500Y-160950000D02*
X77647500Y-160950000D01*
G04 #@! TO.C,C6*
X48960000Y-88935000D02*
X50920000Y-88935000D01*
X48960000Y-92335000D02*
X48960000Y-88935000D01*
X50920000Y-88935000D02*
X50920000Y-92335000D01*
X50920000Y-92335000D02*
X48960000Y-92335000D01*
G04 #@! TO.C,C3*
X28490000Y-170172599D02*
G75*
G02*
X23990000Y-170172599I-2250000J0D01*
G01*
X23990000Y-170172599D02*
G75*
G02*
X28490000Y-170172599I2250000J0D01*
G01*
G04 #@! TO.C,Q3*
X74817500Y-135009834D02*
X75847500Y-135009834D01*
X74817500Y-138009834D02*
X74817500Y-135009834D01*
X75847500Y-134809834D02*
X77647500Y-134809834D01*
X75847500Y-135009834D02*
X75847500Y-134809834D01*
X75847500Y-138009834D02*
X74817500Y-138009834D01*
X75847500Y-138209834D02*
X75847500Y-138009834D01*
X77647500Y-134809834D02*
X77647500Y-135959834D01*
X77647500Y-135959834D02*
X78677500Y-135959834D01*
X77647500Y-137059834D02*
X77647500Y-138209834D01*
X77647500Y-138209834D02*
X75847500Y-138209834D01*
X78677500Y-135959834D02*
X78677500Y-137059834D01*
X78677500Y-137059834D02*
X77647500Y-137059834D01*
G04 #@! TO.C,R24*
X67750000Y-95000000D02*
X68690000Y-95000000D01*
X67750000Y-96860000D02*
X67750000Y-95000000D01*
X68690000Y-95000000D02*
X68690000Y-96860000D01*
X68690000Y-96860000D02*
X67750000Y-96860000D01*
G04 #@! TD*
M02*
