M48
; DRILL file {KiCad 9.0.2} date 2025-06-16T21:06:24+0100
; FORMAT={-:-/ absolute / metric / decimal}
; #@! TF.CreationDate,2025-06-16T21:06:24+01:00
; #@! TF.GenerationSoftware,Kicad,Pcbnew,9.0.2
; #@! TF.FileFunction,Plated,1,2,PTH
FMAT,2
METRIC
; #@! TA.AperFunction,Plated,PTH,ViaDrill
T1C0.100
; #@! TA.AperFunction,Plated,PTH,ViaDrill
T2C0.300
; #@! TA.AperFunction,Plated,PTH,ComponentDrill
T3C0.300
; #@! TA.AperFunction,Plated,PTH,ComponentDrill
T4C0.600
; #@! TA.AperFunction,Plated,PTH,ComponentDrill
T5C0.800
; #@! TA.AperFunction,Plated,PTH,ComponentDrill
T6C0.950
; #@! TA.AperFunction,Plated,PTH,ComponentDrill
T7C1.300
; #@! TA.AperFunction,Plated,PTH,ComponentDrill
T8C1.500
%
G90
G05
T1
X53.1Y-81.16
X54.1Y-81.16
T2
X20.37Y-138.21
X21.09Y-155.68
X21.15Y-141.19
X21.22Y-129.49
X21.85Y-162.325
X21.875Y-167.625
X31.154Y-105.079
X32.15Y-89.375
X32.15Y-92.067
X32.15Y-94.733
X32.15Y-97.45
X33.045Y-124.77
X33.045Y-126.75
X33.717Y-89.375
X33.717Y-97.45
X35.283Y-89.375
X35.283Y-97.45
X35.54Y-105.04
X35.815Y-124.78
X35.815Y-126.74
X36.85Y-89.375
X36.85Y-92.067
X36.85Y-94.733
X36.85Y-97.45
X37.8Y-109.06
X38.99Y-94.92
X38.995Y-96.135
X39.0Y-97.35
X39.1Y-109.03
X40.36Y-154.09
X40.65Y-97.35
X42.3Y-97.35
X43.13Y-137.16
X45.08Y-113.57
X45.08Y-115.77
X47.1Y-97.254
X47.11Y-94.46
X47.72Y-88.47
X48.82Y-90.54
X48.82Y-92.57
X49.59Y-123.02
X49.59Y-124.62
X51.34Y-89.68
X51.96Y-116.14
X52.32Y-85.35
X54.2Y-116.19
X54.77Y-90.69
X55.69Y-86.28
X56.11Y-88.14
X57.56Y-96.651
X57.573Y-94.829
X58.36Y-96.64
X58.373Y-94.83
X61.13Y-115.77
X61.15Y-113.57
X74.6Y-90.51
X74.6Y-91.36
X74.67Y-113.58
X74.67Y-114.43
X74.67Y-137.02
X74.67Y-137.87
X74.74Y-160.93
X74.74Y-161.78
X79.24Y-108.04
X79.25Y-84.98
X79.254Y-155.29
X79.26Y-131.31
X88.5Y-149.95
X88.52Y-126.9
X88.57Y-103.28
X95.98Y-103.3
X96.03Y-149.95
X96.31Y-126.9
X113.699Y-98.838
X113.79Y-123.37
X113.88Y-170.53
X113.91Y-146.86
T3
X27.415Y-149.18
X27.415Y-150.58
X28.115Y-148.48
X28.115Y-149.88
X28.115Y-151.28
X28.815Y-149.18
X28.815Y-150.58
X29.515Y-148.48
X29.515Y-149.88
X29.515Y-151.28
X30.215Y-149.18
X30.215Y-150.58
T4
X26.24Y-169.173
X26.24Y-171.173
X28.01Y-85.905
X28.01Y-87.905
X38.92Y-86.96
X40.92Y-86.96
T5
X106.69Y-130.582
X106.69Y-135.582
X106.69Y-154.46
X106.69Y-159.46
X106.75Y-106.96
X106.75Y-111.96
X106.825Y-83.845
X106.825Y-88.845
T6
X21.25Y-111.1
X21.25Y-113.6
X21.25Y-116.1
X21.25Y-118.6
X21.25Y-121.1
T7
X18.8Y-92.73
X18.8Y-97.81
X18.8Y-102.89
X84.225Y-93.45
X84.225Y-116.571
X84.225Y-139.957
X84.225Y-163.737
X86.225Y-87.45
X86.225Y-99.45
X86.225Y-110.571
X86.225Y-122.571
X86.225Y-133.957
X86.225Y-145.957
X86.225Y-157.737
X86.225Y-169.737
X98.425Y-87.45
X98.425Y-99.45
X98.425Y-110.571
X98.425Y-122.571
X98.425Y-133.957
X98.425Y-145.957
X98.425Y-157.737
X98.425Y-169.737
X120.5Y-88.585
X120.5Y-93.665
X120.5Y-98.745
X120.5Y-111.706
X120.5Y-116.786
X120.5Y-121.866
X120.5Y-135.214
X120.5Y-140.294
X120.5Y-145.374
X120.5Y-158.995
X120.5Y-164.075
X120.5Y-169.155
T8
X23.152Y-79.39
X45.758Y-79.367
T4
G00X49.53Y-77.475
M15
G01X49.53Y-76.875
M16
G05
G00X49.53Y-81.905
M15
G01X49.53Y-80.805
M16
G05
G00X58.17Y-77.475
M15
G01X58.17Y-76.875
M16
G05
G00X58.17Y-81.905
M15
G01X58.17Y-80.805
M16
G05
M30
